<svg width="2370" height="1925" viewBox="0 0 2370 1925" fill="none" xmlns="http://www.w3.org/2000/svg">
<g id="Fig 1.1">
<g id="Block">
<rect id="Rectangle" x="21" y="3" width="2344" height="319" fill="white" stroke="black" stroke-width="6"/>
<path id="&#208;&#145;&#208;&#187;&#208;&#190;&#208;&#186;" d="M1050.93 132.578H1097.49V190H1085.5V142.461H1062.96V190H1050.93V132.578ZM1127.88 163.438C1128.27 163.385 1128.69 163.307 1129.13 163.203C1129.6 163.099 1130.03 162.93 1130.42 162.695C1130.81 162.435 1131.14 162.096 1131.4 161.68C1131.66 161.237 1131.79 160.651 1131.79 159.922C1131.79 159.219 1131.67 158.581 1131.44 158.008C1131.23 157.409 1130.86 156.901 1130.34 156.484C1129.82 156.042 1129.12 155.703 1128.23 155.469C1127.38 155.234 1126.29 155.117 1124.99 155.117C1123.51 155.117 1122.31 155.273 1121.4 155.586C1120.51 155.872 1119.81 156.289 1119.29 156.836C1118.77 157.357 1118.39 157.982 1118.16 158.711C1117.92 159.414 1117.75 160.169 1117.65 160.977H1106.59C1106.59 160.456 1106.67 159.74 1106.83 158.828C1107.01 157.891 1107.32 156.875 1107.77 155.781C1108.23 154.688 1108.87 153.581 1109.68 152.461C1110.51 151.341 1111.59 150.326 1112.92 149.414C1114.28 148.477 1115.92 147.708 1117.84 147.109C1119.77 146.51 1122.08 146.198 1124.76 146.172C1128.56 146.172 1131.63 146.562 1133.98 147.344C1136.35 148.099 1138.18 149.102 1139.48 150.352C1140.81 151.576 1141.7 152.956 1142.14 154.492C1142.61 156.003 1142.84 157.513 1142.84 159.023V181.602C1142.84 182.878 1142.91 183.932 1143.04 184.766C1143.2 185.573 1143.39 186.224 1143.62 186.719C1143.86 187.188 1144.12 187.539 1144.41 187.773C1144.72 187.982 1145.04 188.138 1145.38 188.242V190H1133.16C1132.95 189.505 1132.71 188.854 1132.45 188.047C1132.22 187.214 1132.1 186.211 1132.1 185.039C1131.24 185.924 1130.4 186.745 1129.56 187.5C1128.76 188.255 1127.84 188.919 1126.83 189.492C1125.81 190.039 1124.64 190.469 1123.31 190.781C1121.98 191.12 1120.38 191.289 1118.51 191.289C1116.61 191.289 1114.85 191.003 1113.23 190.43C1111.65 189.883 1110.27 189.062 1109.09 187.969C1107.92 186.875 1107.01 185.508 1106.36 183.867C1105.71 182.227 1105.38 180.326 1105.38 178.164C1105.38 176.419 1105.66 174.805 1106.2 173.32C1106.75 171.81 1107.52 170.495 1108.51 169.375C1109.52 168.229 1110.75 167.292 1112.18 166.562C1113.64 165.807 1115.27 165.299 1117.06 165.039L1127.88 163.438ZM1119.84 183.125C1120.51 183.333 1121.24 183.438 1122.02 183.438C1122.44 183.438 1122.97 183.398 1123.62 183.32C1124.28 183.216 1124.97 183.034 1125.7 182.773C1126.42 182.513 1127.15 182.161 1127.88 181.719C1128.61 181.25 1129.26 180.651 1129.84 179.922C1130.41 179.193 1130.88 178.307 1131.24 177.266C1131.61 176.198 1131.79 174.948 1131.79 173.516V169.219C1131.11 169.583 1130.43 169.922 1129.76 170.234C1129.08 170.521 1128.18 170.768 1127.06 170.977L1124.13 171.523C1122.86 171.758 1121.74 172.031 1120.77 172.344C1119.81 172.656 1119 173.073 1118.35 173.594C1117.73 174.089 1117.24 174.701 1116.91 175.43C1116.59 176.159 1116.44 177.07 1116.44 178.164C1116.44 179.076 1116.58 179.87 1116.87 180.547C1117.15 181.198 1117.54 181.745 1118.04 182.188C1118.56 182.604 1119.16 182.917 1119.84 183.125ZM1184.02 147.422H1200.15V190H1189.76V155.742H1189.6L1181.59 190H1171.52L1163.55 155.742H1163.35V190H1152.96V147.422H1169.6L1176.79 178.32H1176.98L1184.02 147.422ZM1212.53 173.32C1212.95 172.721 1213.52 172.201 1214.25 171.758C1214.98 171.315 1215.96 170.911 1217.18 170.547C1216.79 170.443 1216.35 170.299 1215.85 170.117C1215.38 169.909 1214.88 169.648 1214.33 169.336C1213.81 168.997 1213.27 168.581 1212.73 168.086C1212.21 167.565 1211.71 166.927 1211.24 166.172C1210.9 165.677 1210.63 165.156 1210.42 164.609C1210.24 164.036 1210.1 163.49 1209.99 162.969C1209.89 162.422 1209.82 161.914 1209.8 161.445C1209.77 160.977 1209.76 160.573 1209.76 160.234C1209.76 158.724 1209.94 157.383 1210.3 156.211C1210.67 155.013 1211.14 153.971 1211.71 153.086C1212.28 152.201 1212.93 151.445 1213.66 150.82C1214.39 150.195 1215.14 149.688 1215.89 149.297C1216.72 148.828 1217.65 148.477 1218.66 148.242C1219.68 147.982 1220.67 147.799 1221.63 147.695C1222.6 147.565 1223.49 147.487 1224.33 147.461C1225.16 147.435 1225.81 147.422 1226.28 147.422H1249.17V190H1238.08V174.336H1230.85C1229.26 174.336 1227.9 174.401 1226.75 174.531C1225.63 174.635 1224.71 174.909 1223.98 175.352C1223.25 175.768 1222.69 176.393 1222.3 177.227C1221.93 178.06 1221.72 179.193 1221.67 180.625L1221.52 184.727C1221.46 185.326 1221.39 186.107 1221.28 187.07C1221.2 188.034 1220.96 189.01 1220.54 190H1208.86C1209.2 189.427 1209.47 188.88 1209.68 188.359C1209.89 187.812 1210.04 187.292 1210.15 186.797C1210.28 186.276 1210.37 185.755 1210.42 185.234C1210.5 184.714 1210.57 184.167 1210.62 183.594L1211.16 178.477C1211.29 177.331 1211.45 176.341 1211.63 175.508C1211.82 174.674 1212.11 173.945 1212.53 173.32ZM1222.06 164.258C1222.51 164.961 1223.08 165.482 1223.78 165.82C1224.51 166.159 1225.32 166.354 1226.2 166.406C1227.09 166.458 1227.97 166.484 1228.86 166.484H1238.08V155.742H1229.17C1228.23 155.742 1227.3 155.768 1226.36 155.82C1225.42 155.872 1224.58 156.081 1223.82 156.445C1223.09 156.784 1222.49 157.331 1222.02 158.086C1221.58 158.815 1221.36 159.857 1221.36 161.211C1221.36 162.539 1221.59 163.555 1222.06 164.258ZM1292.8 147.422V156.406H1279.91V190H1268.9V156.406H1256.01V147.422H1292.8ZM1325.38 189.883C1324.39 189.961 1323.64 190 1323.12 190H1299.6V147.422H1310.66V162.227H1321.95C1324.58 162.227 1326.92 162.5 1328.98 163.047C1331.06 163.594 1332.82 164.44 1334.25 165.586C1335.68 166.732 1336.78 168.19 1337.53 169.961C1338.29 171.706 1338.66 173.776 1338.66 176.172C1338.66 178.333 1338.35 180.182 1337.73 181.719C1337.1 183.255 1336.29 184.544 1335.3 185.586C1334.34 186.602 1333.26 187.409 1332.06 188.008C1330.86 188.581 1329.69 189.023 1328.55 189.336C1327.4 189.622 1326.35 189.805 1325.38 189.883ZM1324.76 171.68C1324 171.263 1323.13 170.977 1322.14 170.82C1321.18 170.638 1320.15 170.547 1319.05 170.547H1310.66V181.68H1319.99C1320.85 181.68 1321.7 181.615 1322.53 181.484C1323.39 181.328 1324.16 181.055 1324.84 180.664C1325.54 180.247 1326.1 179.688 1326.52 178.984C1326.93 178.255 1327.14 177.318 1327.14 176.172C1327.14 175.052 1326.92 174.128 1326.48 173.398C1326.06 172.669 1325.49 172.096 1324.76 171.68Z" fill="black"/>
</g>
<g id="Block_2">
<rect id="Rectangle_2" x="21" y="428" width="2344" height="319" fill="white" stroke="black" stroke-width="6"/>
<path id="&#208;&#145;&#208;&#187;&#208;&#190;&#208;&#186;_2" d="M991.672 557.578V615H927.336V557.578H938.391V605.078H953.977V557.578H965.031V605.078H980.617V557.578H991.672ZM1029.88 615V589.336H1029.68L1014.64 615H1002.57V572.422H1013.62V598.672H1013.78L1029.29 572.422H1040.89V615H1029.88ZM1078.78 596.758H1062.53V615H1051.48V572.422H1062.53V587.812H1078.78V572.422H1089.8V615H1078.78V596.758ZM1119.84 588.438C1120.23 588.385 1120.64 588.307 1121.09 588.203C1121.55 588.099 1121.98 587.93 1122.38 587.695C1122.77 587.435 1123.09 587.096 1123.35 586.68C1123.61 586.237 1123.74 585.651 1123.74 584.922C1123.74 584.219 1123.62 583.581 1123.39 583.008C1123.18 582.409 1122.82 581.901 1122.3 581.484C1121.78 581.042 1121.07 580.703 1120.19 580.469C1119.33 580.234 1118.25 580.117 1116.95 580.117C1115.46 580.117 1114.26 580.273 1113.35 580.586C1112.47 580.872 1111.76 581.289 1111.24 581.836C1110.72 582.357 1110.34 582.982 1110.11 583.711C1109.88 584.414 1109.71 585.169 1109.6 585.977H1098.55C1098.55 585.456 1098.62 584.74 1098.78 583.828C1098.96 582.891 1099.28 581.875 1099.72 580.781C1100.19 579.688 1100.83 578.581 1101.63 577.461C1102.47 576.341 1103.55 575.326 1104.88 574.414C1106.23 573.477 1107.87 572.708 1109.8 572.109C1111.72 571.51 1114.03 571.198 1116.71 571.172C1120.51 571.172 1123.59 571.562 1125.93 572.344C1128.3 573.099 1130.14 574.102 1131.44 575.352C1132.77 576.576 1133.65 577.956 1134.09 579.492C1134.56 581.003 1134.8 582.513 1134.8 584.023V606.602C1134.8 607.878 1134.86 608.932 1134.99 609.766C1135.15 610.573 1135.34 611.224 1135.58 611.719C1135.81 612.188 1136.07 612.539 1136.36 612.773C1136.67 612.982 1137 613.138 1137.34 613.242V615H1125.11C1124.9 614.505 1124.67 613.854 1124.41 613.047C1124.17 612.214 1124.05 611.211 1124.05 610.039C1123.2 610.924 1122.35 611.745 1121.52 612.5C1120.71 613.255 1119.8 613.919 1118.78 614.492C1117.77 615.039 1116.59 615.469 1115.27 615.781C1113.94 616.12 1112.34 616.289 1110.46 616.289C1108.56 616.289 1106.8 616.003 1105.19 615.43C1103.6 614.883 1102.22 614.062 1101.05 612.969C1099.88 611.875 1098.96 610.508 1098.31 608.867C1097.66 607.227 1097.34 605.326 1097.34 603.164C1097.34 601.419 1097.61 599.805 1098.16 598.32C1098.7 596.81 1099.47 595.495 1100.46 594.375C1101.48 593.229 1102.7 592.292 1104.13 591.562C1105.59 590.807 1107.22 590.299 1109.02 590.039L1119.84 588.438ZM1111.79 608.125C1112.47 608.333 1113.2 608.438 1113.98 608.438C1114.39 608.438 1114.93 608.398 1115.58 608.32C1116.23 608.216 1116.92 608.034 1117.65 607.773C1118.38 607.513 1119.11 607.161 1119.84 606.719C1120.57 606.25 1121.22 605.651 1121.79 604.922C1122.36 604.193 1122.83 603.307 1123.2 602.266C1123.56 601.198 1123.74 599.948 1123.74 598.516V594.219C1123.07 594.583 1122.39 594.922 1121.71 595.234C1121.03 595.521 1120.14 595.768 1119.02 595.977L1116.09 596.523C1114.81 596.758 1113.69 597.031 1112.73 597.344C1111.76 597.656 1110.96 598.073 1110.3 598.594C1109.68 599.089 1109.2 599.701 1108.86 600.43C1108.55 601.159 1108.39 602.07 1108.39 603.164C1108.39 604.076 1108.53 604.87 1108.82 605.547C1109.11 606.198 1109.5 606.745 1109.99 607.188C1110.51 607.604 1111.11 607.917 1111.79 608.125ZM1201.83 615H1173.9V625.234H1163.51V606.055H1167.92C1168.96 604.102 1169.82 602.057 1170.5 599.922C1171.2 597.76 1171.76 595.586 1172.18 593.398C1172.6 591.211 1172.9 589.076 1173.08 586.992C1173.26 584.883 1173.39 582.904 1173.47 581.055C1173.55 579.206 1173.57 577.539 1173.55 576.055C1173.55 574.57 1173.56 573.359 1173.59 572.422H1206.87V606.055H1212.22V625.234H1201.83V615ZM1180.73 601.836C1180.27 603.346 1179.69 604.753 1179.02 606.055H1195.85V581.406H1183.2C1183.2 582.188 1183.18 583.151 1183.16 584.297C1183.16 585.443 1183.1 586.719 1183 588.125C1182.92 589.505 1182.79 590.977 1182.61 592.539C1182.45 594.102 1182.21 595.664 1181.87 597.227C1181.55 598.789 1181.18 600.326 1180.73 601.836ZM1237.8 588.438C1238.2 588.385 1238.61 588.307 1239.05 588.203C1239.52 588.099 1239.95 587.93 1240.34 587.695C1240.73 587.435 1241.06 587.096 1241.32 586.68C1241.58 586.237 1241.71 585.651 1241.71 584.922C1241.71 584.219 1241.59 583.581 1241.36 583.008C1241.15 582.409 1240.79 581.901 1240.27 581.484C1239.74 581.042 1239.04 580.703 1238.16 580.469C1237.3 580.234 1236.22 580.117 1234.91 580.117C1233.43 580.117 1232.23 580.273 1231.32 580.586C1230.43 580.872 1229.73 581.289 1229.21 581.836C1228.69 582.357 1228.31 582.982 1228.08 583.711C1227.84 584.414 1227.67 585.169 1227.57 585.977H1216.52C1216.52 585.456 1216.59 584.74 1216.75 583.828C1216.93 582.891 1217.24 581.875 1217.69 580.781C1218.16 579.688 1218.79 578.581 1219.6 577.461C1220.43 576.341 1221.52 575.326 1222.84 574.414C1224.2 573.477 1225.84 572.708 1227.77 572.109C1229.69 571.51 1232 571.198 1234.68 571.172C1238.48 571.172 1241.55 571.562 1243.9 572.344C1246.27 573.099 1248.1 574.102 1249.41 575.352C1250.73 576.576 1251.62 577.956 1252.06 579.492C1252.53 581.003 1252.77 582.513 1252.77 584.023V606.602C1252.77 607.878 1252.83 608.932 1252.96 609.766C1253.12 610.573 1253.31 611.224 1253.55 611.719C1253.78 612.188 1254.04 612.539 1254.33 612.773C1254.64 612.982 1254.97 613.138 1255.3 613.242V615H1243.08C1242.87 614.505 1242.64 613.854 1242.38 613.047C1242.14 612.214 1242.02 611.211 1242.02 610.039C1241.16 610.924 1240.32 611.745 1239.48 612.5C1238.68 613.255 1237.77 613.919 1236.75 614.492C1235.73 615.039 1234.56 615.469 1233.23 615.781C1231.91 616.12 1230.3 616.289 1228.43 616.289C1226.53 616.289 1224.77 616.003 1223.16 615.43C1221.57 614.883 1220.19 614.062 1219.02 612.969C1217.84 611.875 1216.93 610.508 1216.28 608.867C1215.63 607.227 1215.3 605.326 1215.3 603.164C1215.3 601.419 1215.58 599.805 1216.12 598.32C1216.67 596.81 1217.44 595.495 1218.43 594.375C1219.45 593.229 1220.67 592.292 1222.1 591.562C1223.56 590.807 1225.19 590.299 1226.98 590.039L1237.8 588.438ZM1229.76 608.125C1230.43 608.333 1231.16 608.438 1231.95 608.438C1232.36 608.438 1232.9 608.398 1233.55 608.32C1234.2 608.216 1234.89 608.034 1235.62 607.773C1236.35 607.513 1237.08 607.161 1237.8 606.719C1238.53 606.25 1239.18 605.651 1239.76 604.922C1240.33 604.193 1240.8 603.307 1241.16 602.266C1241.53 601.198 1241.71 599.948 1241.71 598.516V594.219C1241.03 594.583 1240.36 594.922 1239.68 595.234C1239 595.521 1238.1 595.768 1236.98 595.977L1234.05 596.523C1232.78 596.758 1231.66 597.031 1230.7 597.344C1229.73 597.656 1228.92 598.073 1228.27 598.594C1227.65 599.089 1227.17 599.701 1226.83 600.43C1226.52 601.159 1226.36 602.07 1226.36 603.164C1226.36 604.076 1226.5 604.87 1226.79 605.547C1227.08 606.198 1227.47 606.745 1227.96 607.188C1228.48 607.604 1229.08 607.917 1229.76 608.125ZM1290.19 596.758H1273.94V615H1262.88V572.422H1273.94V587.812H1290.19V572.422H1301.2V615H1290.19V596.758ZM1339.09 596.758H1322.84V615H1311.79V572.422H1322.84V587.812H1339.09V572.422H1350.11V615H1339.09V596.758ZM1388.86 588.047C1390.92 588.594 1392.66 589.44 1394.09 590.586C1395.53 591.732 1396.62 593.19 1397.38 594.961C1398.13 596.706 1398.51 598.776 1398.51 601.172C1398.51 603.333 1398.2 605.182 1397.57 606.719C1396.95 608.255 1396.14 609.544 1395.15 610.586C1394.18 611.602 1393.1 612.409 1391.91 613.008C1390.71 613.581 1389.54 614.023 1388.39 614.336C1387.24 614.622 1386.18 614.805 1385.19 614.883C1384.22 614.961 1383.48 615 1382.96 615H1360.7V572.422H1371.75V587.227H1381.79C1384.42 587.227 1386.78 587.5 1388.86 588.047ZM1414.45 572.422V615H1403.39V572.422H1414.45ZM1378.9 595.547H1371.75V606.68H1379.84C1380.7 606.68 1381.54 606.615 1382.38 606.484C1383.23 606.328 1384 606.055 1384.68 605.664C1385.38 605.247 1385.94 604.688 1386.36 603.984C1386.78 603.255 1386.98 602.318 1386.98 601.172C1386.98 600.052 1386.76 599.128 1386.32 598.398C1385.9 597.669 1385.32 597.096 1384.56 596.68C1383.83 596.263 1382.97 595.977 1381.98 595.82C1381.02 595.638 1379.99 595.547 1378.9 595.547ZM1463 615H1449.17L1442.1 602.188L1434.45 615H1420.93L1435.38 593.32L1421.55 572.422H1435.15L1442.1 584.844L1449.25 572.422H1462.45L1448.51 593.32L1463 615Z" fill="black"/>
</g>
<g id="&#208;&#158;&#208;&#177;&#209;&#138;&#208;&#181;&#208;&#180;&#208;&#184;&#208;&#189;&#208;&#181;&#208;&#189;&#208;&#184;&#208;&#181;">
<rect id="Rectangle_3" x="21" y="853" width="2344" height="644" fill="white" stroke="black" stroke-width="6" stroke-dasharray="25"/>
<path id="&#208;&#158;&#208;&#177;&#209;&#138;&#208;&#181;&#208;&#180;&#208;&#184;&#208;&#189;&#208;&#181;&#208;&#189;&#208;&#184;&#208;&#181;_2" d="M747.219 1433.48H753.195V1455.7H742.805V1443.4H700.656V1385.98H712.688V1433.48H735.227V1385.98H747.219V1433.48ZM768.664 1443.44C766.164 1442.58 763.977 1441.24 762.102 1439.41C760.253 1437.56 758.794 1435.18 757.727 1432.27C756.659 1429.35 756.125 1425.81 756.125 1421.64C756.125 1418.75 756.503 1415.98 757.258 1413.32C758.039 1410.64 759.237 1408.28 760.852 1406.25C762.492 1404.22 764.576 1402.6 767.102 1401.41C769.654 1400.18 772.714 1399.57 776.281 1399.57C780.057 1399.57 783.234 1400.19 785.812 1401.44C788.391 1402.67 790.461 1404.41 792.023 1406.68C793.612 1408.94 794.745 1411.68 795.422 1414.88C796.099 1418.09 796.438 1421.64 796.438 1425.55H767.258C767.258 1425.94 767.297 1426.46 767.375 1427.11C767.453 1427.76 767.609 1428.46 767.844 1429.22C768.078 1429.97 768.417 1430.74 768.859 1431.52C769.302 1432.28 769.888 1432.97 770.617 1433.59C771.372 1434.22 772.284 1434.73 773.352 1435.12C774.445 1435.51 775.747 1435.7 777.258 1435.7C778.039 1435.7 778.807 1435.6 779.562 1435.39C780.344 1435.16 781.06 1434.83 781.711 1434.41C782.362 1433.97 782.922 1433.45 783.391 1432.85C783.885 1432.23 784.237 1431.52 784.445 1430.74H795.891C795.891 1431.52 795.721 1432.42 795.383 1433.44C795.044 1434.43 794.523 1435.44 793.82 1436.48C793.143 1437.5 792.284 1438.5 791.242 1439.49C790.201 1440.48 788.964 1441.37 787.531 1442.15C786.099 1442.9 784.471 1443.52 782.648 1443.98C780.852 1444.45 778.846 1444.69 776.633 1444.69C773.794 1444.69 771.138 1444.27 768.664 1443.44ZM770.617 1410.51C769.758 1411.26 769.042 1412.27 768.469 1413.52C767.922 1414.77 767.648 1416.33 767.648 1418.2H784.953C784.953 1416.33 784.667 1414.77 784.094 1413.52C783.547 1412.27 782.844 1411.28 781.984 1410.55C781.151 1409.79 780.227 1409.27 779.211 1408.98C778.195 1408.67 777.219 1408.52 776.281 1408.52C775.37 1408.52 774.406 1408.67 773.391 1408.98C772.375 1409.27 771.451 1409.78 770.617 1410.51ZM831.164 1425.16H814.914V1443.4H803.859V1400.82H814.914V1416.21H831.164V1400.82H842.18V1443.4H831.164V1425.16ZM885.891 1400.82V1409.8H873V1443.4H861.984V1409.8H849.094V1400.82H885.891ZM908.312 1401.33C909.328 1400.73 910.448 1400.29 911.672 1400C912.922 1399.71 914.328 1399.57 915.891 1399.57C917.193 1399.57 918.534 1399.73 919.914 1400.04C921.294 1400.35 922.635 1400.86 923.938 1401.56C925.266 1402.24 926.516 1403.14 927.688 1404.26C928.859 1405.35 929.888 1406.71 930.773 1408.32C931.659 1409.93 932.362 1411.82 932.883 1413.98C933.404 1416.12 933.664 1418.57 933.664 1421.33C933.664 1424.77 933.286 1427.92 932.531 1430.78C931.802 1433.65 930.682 1436.11 929.172 1438.16C927.688 1440.22 925.799 1441.82 923.508 1442.97C921.242 1444.11 918.573 1444.69 915.5 1444.69C914.432 1444.69 913.352 1444.58 912.258 1444.37C911.164 1444.17 910.096 1443.81 909.055 1443.32C908.013 1442.82 907.023 1442.16 906.086 1441.33C905.174 1440.47 904.367 1439.4 903.664 1438.12H903.508V1459.88H892.453V1400.82H903V1406.91H903.156C903.911 1405.64 904.706 1404.54 905.539 1403.63C906.372 1402.69 907.297 1401.93 908.312 1401.33ZM906.555 1432.89C907.258 1433.59 908.104 1434.17 909.094 1434.61C910.083 1435.03 911.255 1435.23 912.609 1435.23C913.964 1435.23 915.135 1435.03 916.125 1434.61C917.115 1434.17 917.961 1433.59 918.664 1432.89C919.367 1432.19 919.94 1431.38 920.383 1430.47C920.852 1429.56 921.216 1428.62 921.477 1427.66C921.737 1426.67 921.906 1425.7 921.984 1424.77C922.089 1423.8 922.141 1422.92 922.141 1422.11C922.141 1420.62 921.971 1419.13 921.633 1417.62C921.294 1416.11 920.747 1414.75 919.992 1413.55C919.263 1412.36 918.286 1411.38 917.062 1410.62C915.839 1409.87 914.354 1409.49 912.609 1409.49C910.839 1409.49 909.341 1409.87 908.117 1410.62C906.919 1411.38 905.943 1412.36 905.188 1413.55C904.458 1414.75 903.924 1416.11 903.586 1417.62C903.247 1419.13 903.078 1420.62 903.078 1422.11C903.078 1422.92 903.117 1423.8 903.195 1424.77C903.299 1425.7 903.482 1426.67 903.742 1427.66C904.003 1428.62 904.354 1429.56 904.797 1430.47C905.266 1431.38 905.852 1432.19 906.555 1432.89ZM961.125 1416.84C961.516 1416.78 961.932 1416.71 962.375 1416.6C962.844 1416.5 963.273 1416.33 963.664 1416.09C964.055 1415.83 964.38 1415.49 964.641 1415.08C964.901 1414.63 965.031 1414.05 965.031 1413.32C965.031 1412.62 964.914 1411.98 964.68 1411.41C964.471 1410.81 964.107 1410.3 963.586 1409.88C963.065 1409.44 962.362 1409.1 961.477 1408.87C960.617 1408.63 959.536 1408.52 958.234 1408.52C956.75 1408.52 955.552 1408.67 954.641 1408.98C953.755 1409.27 953.052 1409.69 952.531 1410.23C952.01 1410.75 951.633 1411.38 951.398 1412.11C951.164 1412.81 950.995 1413.57 950.891 1414.37H939.836C939.836 1413.85 939.914 1413.14 940.07 1412.23C940.253 1411.29 940.565 1410.27 941.008 1409.18C941.477 1408.09 942.115 1406.98 942.922 1405.86C943.755 1404.74 944.836 1403.72 946.164 1402.81C947.518 1401.87 949.159 1401.11 951.086 1400.51C953.013 1399.91 955.318 1399.6 958 1399.57C961.802 1399.57 964.875 1399.96 967.219 1400.74C969.589 1401.5 971.424 1402.5 972.727 1403.75C974.055 1404.97 974.94 1406.35 975.383 1407.89C975.852 1409.4 976.086 1410.91 976.086 1412.42V1435C976.086 1436.28 976.151 1437.33 976.281 1438.16C976.438 1438.97 976.633 1439.62 976.867 1440.12C977.102 1440.59 977.362 1440.94 977.648 1441.17C977.961 1441.38 978.286 1441.54 978.625 1441.64V1443.4H966.398C966.19 1442.9 965.956 1442.25 965.695 1441.44C965.461 1440.61 965.344 1439.61 965.344 1438.44C964.484 1439.32 963.638 1440.14 962.805 1440.9C961.997 1441.65 961.086 1442.32 960.07 1442.89C959.055 1443.44 957.883 1443.87 956.555 1444.18C955.227 1444.52 953.625 1444.69 951.75 1444.69C949.849 1444.69 948.091 1444.4 946.477 1443.83C944.888 1443.28 943.508 1442.46 942.336 1441.37C941.164 1440.27 940.253 1438.91 939.602 1437.27C938.951 1435.62 938.625 1433.72 938.625 1431.56C938.625 1429.82 938.898 1428.2 939.445 1426.72C939.992 1425.21 940.76 1423.89 941.75 1422.77C942.766 1421.63 943.99 1420.69 945.422 1419.96C946.88 1419.21 948.508 1418.7 950.305 1418.44L961.125 1416.84ZM953.078 1436.52C953.755 1436.73 954.484 1436.84 955.266 1436.84C955.682 1436.84 956.216 1436.8 956.867 1436.72C957.518 1436.61 958.208 1436.43 958.938 1436.17C959.667 1435.91 960.396 1435.56 961.125 1435.12C961.854 1434.65 962.505 1434.05 963.078 1433.32C963.651 1432.59 964.12 1431.71 964.484 1430.66C964.849 1429.6 965.031 1428.35 965.031 1426.91V1422.62C964.354 1422.98 963.677 1423.32 963 1423.63C962.323 1423.92 961.424 1424.17 960.305 1424.37L957.375 1424.92C956.099 1425.16 954.979 1425.43 954.016 1425.74C953.052 1426.05 952.245 1426.47 951.594 1426.99C950.969 1427.49 950.487 1428.1 950.148 1428.83C949.836 1429.56 949.68 1430.47 949.68 1431.56C949.68 1432.47 949.823 1433.27 950.109 1433.94C950.396 1434.6 950.786 1435.14 951.281 1435.59C951.802 1436 952.401 1436.31 953.078 1436.52ZM1002.73 1409.8L1002.49 1417.73C1002.36 1422.19 1002.08 1426.09 1001.63 1429.45C1001.19 1432.81 1000.46 1435.62 999.445 1437.89C998.456 1440.13 997.102 1441.82 995.383 1442.97C993.69 1444.11 991.516 1444.69 988.859 1444.69C987.609 1444.69 986.516 1444.61 985.578 1444.45C984.641 1444.32 983.872 1444.13 983.273 1443.87V1434.61C983.638 1434.77 984.094 1434.91 984.641 1435.04C985.214 1435.17 985.904 1435.23 986.711 1435.23C987.544 1435.23 988.286 1434.99 988.938 1434.49C989.589 1433.97 990.148 1433.05 990.617 1431.72C991.086 1430.36 991.451 1428.5 991.711 1426.13C991.971 1423.76 992.141 1420.7 992.219 1416.95L992.531 1400.82H1026.79V1443.4H1015.77V1409.8H1002.73ZM1064.09 1443.28C1063.1 1443.36 1062.35 1443.4 1061.83 1443.4H1038.31V1400.82H1049.37V1415.62H1060.66C1063.29 1415.62 1065.63 1415.9 1067.69 1416.44C1069.77 1416.99 1071.53 1417.84 1072.96 1418.98C1074.39 1420.13 1075.49 1421.59 1076.24 1423.36C1077 1425.1 1077.38 1427.17 1077.38 1429.57C1077.38 1431.73 1077.06 1433.58 1076.44 1435.12C1075.81 1436.65 1075.01 1437.94 1074.02 1438.98C1073.05 1440 1071.97 1440.81 1070.77 1441.41C1069.58 1441.98 1068.4 1442.42 1067.26 1442.73C1066.11 1443.02 1065.06 1443.2 1064.09 1443.28ZM1063.47 1425.08C1062.71 1424.66 1061.84 1424.37 1060.85 1424.22C1059.89 1424.04 1058.86 1423.94 1057.77 1423.94H1049.37V1435.08H1058.7C1059.56 1435.08 1060.41 1435.01 1061.24 1434.88C1062.1 1434.73 1062.87 1434.45 1063.55 1434.06C1064.25 1433.65 1064.81 1433.09 1065.23 1432.38C1065.64 1431.65 1065.85 1430.72 1065.85 1429.57C1065.85 1428.45 1065.63 1427.53 1065.19 1426.8C1064.77 1426.07 1064.2 1425.49 1063.47 1425.08ZM1111.95 1425.16H1095.7V1443.4H1084.64V1400.82H1095.7V1416.21H1111.95V1400.82H1122.96V1443.4H1111.95V1425.16ZM1161.71 1416.44C1163.77 1416.99 1165.51 1417.84 1166.95 1418.98C1168.38 1420.13 1169.47 1421.59 1170.23 1423.36C1170.98 1425.1 1171.36 1427.17 1171.36 1429.57C1171.36 1431.73 1171.05 1433.58 1170.42 1435.12C1169.8 1436.65 1168.99 1437.94 1168 1438.98C1167.04 1440 1165.96 1440.81 1164.76 1441.41C1163.56 1441.98 1162.39 1442.42 1161.24 1442.73C1160.1 1443.02 1159.03 1443.2 1158.04 1443.28C1157.08 1443.36 1156.33 1443.4 1155.81 1443.4H1133.55V1400.82H1144.6V1415.62H1154.64C1157.27 1415.62 1159.63 1415.9 1161.71 1416.44ZM1187.3 1400.82V1443.4H1176.24V1400.82H1187.3ZM1151.75 1423.94H1144.6V1435.08H1152.69C1153.55 1435.08 1154.39 1435.01 1155.23 1434.88C1156.09 1434.73 1156.85 1434.45 1157.53 1434.06C1158.23 1433.65 1158.79 1433.09 1159.21 1432.38C1159.63 1431.65 1159.84 1430.72 1159.84 1429.57C1159.84 1428.45 1159.61 1427.53 1159.17 1426.8C1158.76 1426.07 1158.17 1425.49 1157.41 1425.08C1156.68 1424.66 1155.83 1424.37 1154.84 1424.22C1153.87 1424.04 1152.84 1423.94 1151.75 1423.94ZM1208.9 1427.07H1209.05L1224.56 1400.82H1236.16V1443.4H1225.15V1417.73H1224.95L1209.91 1443.4H1197.84V1400.82H1208.9V1427.07ZM1211.83 1385.04C1211.98 1385.69 1212.26 1386.26 1212.65 1386.76C1213.07 1387.23 1213.61 1387.6 1214.29 1387.89C1214.99 1388.15 1215.89 1388.28 1216.98 1388.28C1218.05 1388.28 1218.94 1388.18 1219.64 1387.97C1220.37 1387.73 1220.94 1387.4 1221.36 1386.95C1221.78 1386.51 1222.06 1385.96 1222.22 1385.31C1222.38 1384.66 1222.44 1383.89 1222.41 1383.01H1230.38C1230.38 1385.06 1230.04 1386.82 1229.37 1388.28C1228.69 1389.74 1227.75 1390.94 1226.55 1391.87C1225.38 1392.79 1223.98 1393.46 1222.34 1393.91C1220.7 1394.32 1218.91 1394.53 1216.98 1394.53C1215.03 1394.53 1213.23 1394.32 1211.59 1393.91C1209.95 1393.46 1208.53 1392.79 1207.34 1391.87C1206.14 1390.94 1205.2 1389.74 1204.52 1388.28C1203.87 1386.82 1203.55 1385.06 1203.55 1383.01H1211.55C1211.58 1383.74 1211.67 1384.41 1211.83 1385.04ZM1269.02 1400.82H1307.34V1443.4H1296.32V1409.8H1280.07V1443.4H1269.02V1400.82ZM1333.47 1401.33C1334.48 1400.73 1335.6 1400.29 1336.83 1400C1338.08 1399.71 1339.48 1399.57 1341.05 1399.57C1342.35 1399.57 1343.69 1399.73 1345.07 1400.04C1346.45 1400.35 1347.79 1400.86 1349.09 1401.56C1350.42 1402.24 1351.67 1403.14 1352.84 1404.26C1354.02 1405.35 1355.04 1406.71 1355.93 1408.32C1356.82 1409.93 1357.52 1411.82 1358.04 1413.98C1358.56 1416.12 1358.82 1418.57 1358.82 1421.33C1358.82 1424.77 1358.44 1427.92 1357.69 1430.78C1356.96 1433.65 1355.84 1436.11 1354.33 1438.16C1352.84 1440.22 1350.96 1441.82 1348.66 1442.97C1346.4 1444.11 1343.73 1444.69 1340.66 1444.69C1339.59 1444.69 1338.51 1444.58 1337.41 1444.37C1336.32 1444.17 1335.25 1443.81 1334.21 1443.32C1333.17 1442.82 1332.18 1442.16 1331.24 1441.33C1330.33 1440.47 1329.52 1439.4 1328.82 1438.12H1328.66V1459.88H1317.61V1400.82H1328.16V1406.91H1328.31C1329.07 1405.64 1329.86 1404.54 1330.7 1403.63C1331.53 1402.69 1332.45 1401.93 1333.47 1401.33ZM1331.71 1432.89C1332.41 1433.59 1333.26 1434.17 1334.25 1434.61C1335.24 1435.03 1336.41 1435.23 1337.77 1435.23C1339.12 1435.23 1340.29 1435.03 1341.28 1434.61C1342.27 1434.17 1343.12 1433.59 1343.82 1432.89C1344.52 1432.19 1345.1 1431.38 1345.54 1430.47C1346.01 1429.56 1346.37 1428.62 1346.63 1427.66C1346.89 1426.67 1347.06 1425.7 1347.14 1424.77C1347.24 1423.8 1347.3 1422.92 1347.3 1422.11C1347.3 1420.62 1347.13 1419.13 1346.79 1417.62C1346.45 1416.11 1345.9 1414.75 1345.15 1413.55C1344.42 1412.36 1343.44 1411.38 1342.22 1410.62C1340.99 1409.87 1339.51 1409.49 1337.77 1409.49C1335.99 1409.49 1334.5 1409.87 1333.27 1410.62C1332.08 1411.38 1331.1 1412.36 1330.34 1413.55C1329.61 1414.75 1329.08 1416.11 1328.74 1417.62C1328.4 1419.13 1328.23 1420.62 1328.23 1422.11C1328.23 1422.92 1328.27 1423.8 1328.35 1424.77C1328.46 1425.7 1328.64 1426.67 1328.9 1427.66C1329.16 1428.62 1329.51 1429.56 1329.95 1430.47C1330.42 1431.38 1331.01 1432.19 1331.71 1432.89ZM1376.98 1443.01C1374.3 1441.89 1372.01 1440.32 1370.11 1438.32C1368.23 1436.31 1366.79 1433.93 1365.77 1431.17C1364.78 1428.41 1364.29 1425.39 1364.29 1422.11C1364.29 1418.83 1364.78 1415.81 1365.77 1413.05C1366.79 1410.29 1368.23 1407.92 1370.11 1405.94C1372.01 1403.93 1374.3 1402.37 1376.98 1401.25C1379.67 1400.13 1382.69 1399.57 1386.05 1399.57C1389.46 1399.57 1392.51 1400.13 1395.19 1401.25C1397.9 1402.37 1400.17 1403.93 1402.02 1405.94C1403.9 1407.92 1405.33 1410.29 1406.32 1413.05C1407.31 1415.81 1407.8 1418.83 1407.8 1422.11C1407.8 1425.39 1407.31 1428.41 1406.32 1431.17C1405.33 1433.93 1403.9 1436.31 1402.02 1438.32C1400.17 1440.32 1397.9 1441.89 1395.19 1443.01C1392.51 1444.13 1389.46 1444.69 1386.05 1444.69C1382.69 1444.69 1379.67 1444.13 1376.98 1443.01ZM1376.36 1426.87C1376.7 1428.46 1377.27 1429.88 1378.08 1431.13C1378.89 1432.36 1379.94 1433.35 1381.24 1434.1C1382.54 1434.86 1384.15 1435.23 1386.05 1435.23C1388.03 1435.23 1389.67 1434.87 1390.97 1434.14C1392.3 1433.38 1393.35 1432.41 1394.13 1431.21C1394.91 1429.99 1395.46 1428.59 1395.77 1427.03C1396.11 1425.44 1396.28 1423.8 1396.28 1422.11C1396.28 1420.44 1396.11 1418.81 1395.77 1417.23C1395.46 1415.64 1394.91 1414.24 1394.13 1413.05C1393.35 1411.82 1392.3 1410.85 1390.97 1410.12C1389.67 1409.36 1388.03 1408.98 1386.05 1408.98C1384.15 1408.98 1382.54 1409.36 1381.24 1410.12C1379.94 1410.87 1378.89 1411.87 1378.08 1413.12C1377.27 1414.35 1376.68 1415.75 1376.32 1417.34C1375.98 1418.91 1375.81 1420.49 1375.81 1422.11C1375.81 1423.72 1375.99 1425.31 1376.36 1426.87ZM1454.13 1434.45H1459.33V1453.63H1449.09V1443.4H1415.81V1400.82H1426.87V1434.45H1443.12V1400.82H1454.13V1434.45ZM1474.05 1443.44C1471.55 1442.58 1469.37 1441.24 1467.49 1439.41C1465.64 1437.56 1464.18 1435.18 1463.12 1432.27C1462.05 1429.35 1461.52 1425.81 1461.52 1421.64C1461.52 1418.75 1461.89 1415.98 1462.65 1413.32C1463.43 1410.64 1464.63 1408.28 1466.24 1406.25C1467.88 1404.22 1469.97 1402.6 1472.49 1401.41C1475.04 1400.18 1478.1 1399.57 1481.67 1399.57C1485.45 1399.57 1488.62 1400.19 1491.2 1401.44C1493.78 1402.67 1495.85 1404.41 1497.41 1406.68C1499 1408.94 1500.14 1411.68 1500.81 1414.88C1501.49 1418.09 1501.83 1421.64 1501.83 1425.55H1472.65C1472.65 1425.94 1472.69 1426.46 1472.77 1427.11C1472.84 1427.76 1473 1428.46 1473.23 1429.22C1473.47 1429.97 1473.81 1430.74 1474.25 1431.52C1474.69 1432.28 1475.28 1432.97 1476.01 1433.59C1476.76 1434.22 1477.67 1434.73 1478.74 1435.12C1479.84 1435.51 1481.14 1435.7 1482.65 1435.7C1483.43 1435.7 1484.2 1435.6 1484.95 1435.39C1485.73 1435.16 1486.45 1434.83 1487.1 1434.41C1487.75 1433.97 1488.31 1433.45 1488.78 1432.85C1489.28 1432.23 1489.63 1431.52 1489.84 1430.74H1501.28C1501.28 1431.52 1501.11 1432.42 1500.77 1433.44C1500.43 1434.43 1499.91 1435.44 1499.21 1436.48C1498.53 1437.5 1497.67 1438.5 1496.63 1439.49C1495.59 1440.48 1494.35 1441.37 1492.92 1442.15C1491.49 1442.9 1489.86 1443.52 1488.04 1443.98C1486.24 1444.45 1484.24 1444.69 1482.02 1444.69C1479.18 1444.69 1476.53 1444.27 1474.05 1443.44ZM1476.01 1410.51C1475.15 1411.26 1474.43 1412.27 1473.86 1413.52C1473.31 1414.77 1473.04 1416.33 1473.04 1418.2H1490.34C1490.34 1416.33 1490.06 1414.77 1489.48 1413.52C1488.94 1412.27 1488.23 1411.28 1487.38 1410.55C1486.54 1409.79 1485.62 1409.27 1484.6 1408.98C1483.59 1408.67 1482.61 1408.52 1481.67 1408.52C1480.76 1408.52 1479.8 1408.67 1478.78 1408.98C1477.77 1409.27 1476.84 1409.78 1476.01 1410.51ZM1526.71 1435.23C1527.99 1435.23 1529.09 1434.99 1530.03 1434.49C1530.97 1433.97 1531.75 1433.33 1532.38 1432.58C1533 1431.82 1533.46 1431.02 1533.74 1430.16C1534.05 1429.3 1534.21 1428.52 1534.21 1427.81H1545.73C1545.73 1428.52 1545.6 1429.43 1545.34 1430.55C1545.11 1431.67 1544.71 1432.85 1544.13 1434.1C1543.56 1435.35 1542.79 1436.61 1541.83 1437.89C1540.89 1439.14 1539.71 1440.27 1538.27 1441.29C1536.87 1442.28 1535.21 1443.09 1533.31 1443.71C1531.41 1444.36 1529.21 1444.69 1526.71 1444.69C1523.46 1444.69 1520.58 1444.19 1518.08 1443.2C1515.6 1442.21 1513.52 1440.77 1511.83 1438.87C1510.16 1436.94 1508.89 1434.57 1508 1431.76C1507.14 1428.94 1506.71 1425.73 1506.71 1422.11C1506.71 1418.49 1507.18 1415.29 1508.12 1412.5C1509.08 1409.69 1510.43 1407.33 1512.18 1405.43C1513.92 1403.5 1516.02 1402.04 1518.47 1401.05C1520.94 1400.06 1523.69 1399.57 1526.71 1399.57C1528.01 1399.57 1529.35 1399.67 1530.73 1399.88C1532.14 1400.09 1533.52 1400.46 1534.88 1400.98C1536.23 1401.47 1537.52 1402.12 1538.74 1402.93C1539.99 1403.74 1541.1 1404.75 1542.06 1405.98C1543.05 1407.17 1543.86 1408.59 1544.48 1410.23C1545.14 1411.85 1545.55 1413.72 1545.73 1415.86H1534.21C1534 1414.74 1533.72 1413.76 1533.35 1412.93C1532.99 1412.07 1532.51 1411.35 1531.91 1410.78C1531.33 1410.18 1530.62 1409.74 1529.76 1409.45C1528.92 1409.14 1527.91 1408.98 1526.71 1408.98C1524.86 1408.98 1523.38 1409.41 1522.26 1410.27C1521.16 1411.13 1520.32 1412.21 1519.72 1413.52C1519.12 1414.82 1518.72 1416.24 1518.51 1417.77C1518.33 1419.31 1518.23 1420.75 1518.23 1422.11C1518.23 1423.52 1518.31 1425 1518.47 1426.56C1518.62 1428.1 1518.99 1429.52 1519.56 1430.82C1520.14 1432.1 1520.98 1433.15 1522.1 1433.98C1523.22 1434.82 1524.76 1435.23 1526.71 1435.23ZM1571.24 1435.23C1572.52 1435.23 1573.62 1434.99 1574.56 1434.49C1575.5 1433.97 1576.28 1433.33 1576.91 1432.58C1577.53 1431.82 1577.99 1431.02 1578.27 1430.16C1578.59 1429.3 1578.74 1428.52 1578.74 1427.81H1590.27C1590.27 1428.52 1590.14 1429.43 1589.88 1430.55C1589.64 1431.67 1589.24 1432.85 1588.66 1434.1C1588.09 1435.35 1587.32 1436.61 1586.36 1437.89C1585.42 1439.14 1584.24 1440.27 1582.8 1441.29C1581.4 1442.28 1579.74 1443.09 1577.84 1443.71C1575.94 1444.36 1573.74 1444.69 1571.24 1444.69C1567.99 1444.69 1565.11 1444.19 1562.61 1443.2C1560.14 1442.21 1558.05 1440.77 1556.36 1438.87C1554.69 1436.94 1553.42 1434.57 1552.53 1431.76C1551.67 1428.94 1551.24 1425.73 1551.24 1422.11C1551.24 1418.49 1551.71 1415.29 1552.65 1412.5C1553.61 1409.69 1554.97 1407.33 1556.71 1405.43C1558.46 1403.5 1560.55 1402.04 1563 1401.05C1565.47 1400.06 1568.22 1399.57 1571.24 1399.57C1572.54 1399.57 1573.89 1399.67 1575.27 1399.88C1576.67 1400.09 1578.05 1400.46 1579.41 1400.98C1580.76 1401.47 1582.05 1402.12 1583.27 1402.93C1584.52 1403.74 1585.63 1404.75 1586.59 1405.98C1587.58 1407.17 1588.39 1408.59 1589.02 1410.23C1589.67 1411.85 1590.08 1413.72 1590.27 1415.86H1578.74C1578.53 1414.74 1578.25 1413.76 1577.88 1412.93C1577.52 1412.07 1577.04 1411.35 1576.44 1410.78C1575.86 1410.18 1575.15 1409.74 1574.29 1409.45C1573.46 1409.14 1572.44 1408.98 1571.24 1408.98C1569.39 1408.98 1567.91 1409.41 1566.79 1410.27C1565.7 1411.13 1564.85 1412.21 1564.25 1413.52C1563.65 1414.82 1563.25 1416.24 1563.04 1417.77C1562.86 1419.31 1562.77 1420.75 1562.77 1422.11C1562.77 1423.52 1562.84 1425 1563 1426.56C1563.16 1428.1 1563.52 1429.52 1564.09 1430.82C1564.67 1432.1 1565.51 1433.15 1566.63 1433.98C1567.75 1434.82 1569.29 1435.23 1571.24 1435.23ZM1608.47 1443.01C1605.79 1441.89 1603.49 1440.32 1601.59 1438.32C1599.72 1436.31 1598.27 1433.93 1597.26 1431.17C1596.27 1428.41 1595.77 1425.39 1595.77 1422.11C1595.77 1418.83 1596.27 1415.81 1597.26 1413.05C1598.27 1410.29 1599.72 1407.92 1601.59 1405.94C1603.49 1403.93 1605.79 1402.37 1608.47 1401.25C1611.15 1400.13 1614.17 1399.57 1617.53 1399.57C1620.94 1399.57 1623.99 1400.13 1626.67 1401.25C1629.38 1402.37 1631.66 1403.93 1633.51 1405.94C1635.38 1407.92 1636.82 1410.29 1637.8 1413.05C1638.79 1415.81 1639.29 1418.83 1639.29 1422.11C1639.29 1425.39 1638.79 1428.41 1637.8 1431.17C1636.82 1433.93 1635.38 1436.31 1633.51 1438.32C1631.66 1440.32 1629.38 1441.89 1626.67 1443.01C1623.99 1444.13 1620.94 1444.69 1617.53 1444.69C1614.17 1444.69 1611.15 1444.13 1608.47 1443.01ZM1607.84 1426.87C1608.18 1428.46 1608.76 1429.88 1609.56 1431.13C1610.37 1432.36 1611.42 1433.35 1612.73 1434.1C1614.03 1434.86 1615.63 1435.23 1617.53 1435.23C1619.51 1435.23 1621.15 1434.87 1622.45 1434.14C1623.78 1433.38 1624.84 1432.41 1625.62 1431.21C1626.4 1429.99 1626.95 1428.59 1627.26 1427.03C1627.6 1425.44 1627.77 1423.8 1627.77 1422.11C1627.77 1420.44 1627.6 1418.81 1627.26 1417.23C1626.95 1415.64 1626.4 1414.24 1625.62 1413.05C1624.84 1411.82 1623.78 1410.85 1622.45 1410.12C1621.15 1409.36 1619.51 1408.98 1617.53 1408.98C1615.63 1408.98 1614.03 1409.36 1612.73 1410.12C1611.42 1410.87 1610.37 1411.87 1609.56 1413.12C1608.76 1414.35 1608.17 1415.75 1607.8 1417.34C1607.47 1418.91 1607.3 1420.49 1607.3 1422.11C1607.3 1423.72 1607.48 1425.31 1607.84 1426.87ZM1662.84 1401.33C1663.86 1400.73 1664.98 1400.29 1666.2 1400C1667.45 1399.71 1668.86 1399.57 1670.42 1399.57C1671.72 1399.57 1673.07 1399.73 1674.45 1400.04C1675.83 1400.35 1677.17 1400.86 1678.47 1401.56C1679.8 1402.24 1681.05 1403.14 1682.22 1404.26C1683.39 1405.35 1684.42 1406.71 1685.3 1408.32C1686.19 1409.93 1686.89 1411.82 1687.41 1413.98C1687.93 1416.12 1688.2 1418.57 1688.2 1421.33C1688.2 1424.77 1687.82 1427.92 1687.06 1430.78C1686.33 1433.65 1685.21 1436.11 1683.7 1438.16C1682.22 1440.22 1680.33 1441.82 1678.04 1442.97C1675.77 1444.11 1673.1 1444.69 1670.03 1444.69C1668.96 1444.69 1667.88 1444.58 1666.79 1444.37C1665.7 1444.17 1664.63 1443.81 1663.59 1443.32C1662.54 1442.82 1661.55 1442.16 1660.62 1441.33C1659.71 1440.47 1658.9 1439.4 1658.2 1438.12H1658.04V1459.88H1646.98V1400.82H1657.53V1406.91H1657.69C1658.44 1405.64 1659.24 1404.54 1660.07 1403.63C1660.9 1402.69 1661.83 1401.93 1662.84 1401.33ZM1661.09 1432.89C1661.79 1433.59 1662.64 1434.17 1663.62 1434.61C1664.61 1435.03 1665.79 1435.23 1667.14 1435.23C1668.49 1435.23 1669.67 1435.03 1670.66 1434.61C1671.65 1434.17 1672.49 1433.59 1673.2 1432.89C1673.9 1432.19 1674.47 1431.38 1674.91 1430.47C1675.38 1429.56 1675.75 1428.62 1676.01 1427.66C1676.27 1426.67 1676.44 1425.7 1676.52 1424.77C1676.62 1423.8 1676.67 1422.92 1676.67 1422.11C1676.67 1420.62 1676.5 1419.13 1676.16 1417.62C1675.83 1416.11 1675.28 1414.75 1674.52 1413.55C1673.79 1412.36 1672.82 1411.38 1671.59 1410.62C1670.37 1409.87 1668.89 1409.49 1667.14 1409.49C1665.37 1409.49 1663.87 1409.87 1662.65 1410.62C1661.45 1411.38 1660.47 1412.36 1659.72 1413.55C1658.99 1414.75 1658.46 1416.11 1658.12 1417.62C1657.78 1419.13 1657.61 1420.62 1657.61 1422.11C1657.61 1422.92 1657.65 1423.8 1657.73 1424.77C1657.83 1425.7 1658.01 1426.67 1658.27 1427.66C1658.53 1428.62 1658.89 1429.56 1659.33 1430.47C1659.8 1431.38 1660.38 1432.19 1661.09 1432.89Z" fill="black"/>
</g>
<g id="Block_3">
<rect id="Rectangle_4" x="871" y="953" width="644" height="319" fill="white" stroke="black" stroke-width="6"/>
<path id="&#208;&#145;&#208;&#187;&#208;&#190;&#208;&#186;_3" d="M1164.76 1140H1151.71L1148.04 1128.16H1126.83L1122.84 1140H1110.19L1130.73 1082.58H1144.45L1164.76 1140ZM1144.68 1118.24L1137.53 1095.51H1137.38L1130.03 1118.24H1144.68ZM1179.33 1082.58H1219.41V1140H1207.41V1092.46H1190.58L1190.62 1101.13C1190.64 1106.37 1190.53 1110.99 1190.27 1115C1190.03 1118.98 1189.64 1122.46 1189.09 1125.43C1188.57 1128.37 1187.9 1130.85 1187.06 1132.85C1186.26 1134.86 1185.29 1136.47 1184.17 1137.7C1183.05 1138.89 1181.78 1139.75 1180.34 1140.27C1178.91 1140.79 1177.34 1141.05 1175.62 1141.05C1174.21 1141.05 1172.96 1140.96 1171.87 1140.78C1170.8 1140.62 1169.73 1140.33 1168.66 1139.88L1168.62 1128.91C1168.99 1129.09 1169.37 1129.24 1169.76 1129.38C1170.17 1129.48 1170.58 1129.57 1170.97 1129.65C1171.36 1129.7 1171.71 1129.74 1172.02 1129.77C1172.36 1129.79 1172.62 1129.8 1172.8 1129.8C1173.51 1129.8 1174.16 1129.71 1174.76 1129.53C1175.38 1129.32 1175.93 1128.89 1176.4 1128.24C1176.89 1127.59 1177.32 1126.65 1177.69 1125.43C1178.05 1124.21 1178.35 1122.58 1178.59 1120.55C1178.85 1118.52 1179.03 1116 1179.13 1113.01C1179.26 1110.01 1179.33 1106.43 1179.33 1102.27V1082.58ZM1240.5 1130.7C1242.14 1130.7 1243.43 1130.22 1244.37 1129.26C1245.3 1128.29 1245.96 1127.08 1246.32 1125.62L1225.97 1082.58H1239.48L1252.53 1113.44L1263.98 1082.58H1276.87L1258.55 1124.96C1256.15 1130.56 1253.61 1134.71 1250.93 1137.42C1248.25 1140.1 1245.25 1141.45 1241.95 1141.45C1240.9 1141.45 1239.99 1141.39 1239.21 1141.29C1238.46 1141.18 1237.79 1141.05 1237.22 1140.9C1236.67 1140.74 1236.18 1140.59 1235.73 1140.43C1235.32 1140.27 1234.91 1140.13 1234.52 1140V1129.1C1235.28 1129.6 1236.15 1129.99 1237.14 1130.27C1238.13 1130.56 1239.25 1130.7 1240.5 1130.7Z" fill="black"/>
</g>
<g id="Block_4">
<rect id="Rectangle_5" x="1621" y="953" width="644" height="319" fill="white" stroke="black" stroke-width="6"/>
<path id="&#208;&#145;&#208;&#187;&#208;&#190;&#208;&#186;_4" d="M1792.61 1118.01C1790.27 1118.92 1787.61 1119.38 1784.64 1119.38H1771.52V1140H1759.52V1082.58H1785.62C1788.66 1082.58 1791.31 1082.99 1793.55 1083.83C1795.81 1084.66 1797.69 1085.87 1799.17 1087.46C1800.66 1089.05 1801.76 1090.98 1802.49 1093.24C1803.22 1095.51 1803.59 1098.09 1803.59 1100.98C1803.59 1103.66 1803.16 1106.13 1802.3 1108.4C1801.44 1110.64 1800.19 1112.58 1798.55 1114.22C1796.93 1115.83 1794.95 1117.1 1792.61 1118.01ZM1771.52 1109.45H1782.88C1785.59 1109.45 1787.71 1108.79 1789.25 1107.46C1790.81 1106.13 1791.59 1103.97 1791.59 1100.98C1791.59 1099.47 1791.39 1098.18 1790.97 1097.11C1790.58 1096.04 1790.01 1095.17 1789.25 1094.49C1788.52 1093.79 1787.61 1093.28 1786.52 1092.97C1785.45 1092.63 1784.24 1092.46 1782.88 1092.46H1771.52V1109.45ZM1820.93 1140.04C1818.43 1139.18 1816.24 1137.84 1814.37 1136.02C1812.52 1134.17 1811.06 1131.78 1809.99 1128.87C1808.92 1125.95 1808.39 1122.41 1808.39 1118.24C1808.39 1115.35 1808.77 1112.58 1809.52 1109.92C1810.3 1107.24 1811.5 1104.88 1813.12 1102.85C1814.76 1100.82 1816.84 1099.21 1819.37 1098.01C1821.92 1096.78 1824.98 1096.17 1828.55 1096.17C1832.32 1096.17 1835.5 1096.8 1838.08 1098.05C1840.66 1099.27 1842.73 1101.02 1844.29 1103.28C1845.88 1105.55 1847.01 1108.28 1847.69 1111.48C1848.36 1114.69 1848.7 1118.24 1848.7 1122.15H1819.52C1819.52 1122.54 1819.56 1123.06 1819.64 1123.71C1819.72 1124.36 1819.88 1125.07 1820.11 1125.82C1820.34 1126.58 1820.68 1127.34 1821.12 1128.12C1821.57 1128.88 1822.15 1129.57 1822.88 1130.2C1823.64 1130.82 1824.55 1131.33 1825.62 1131.72C1826.71 1132.11 1828.01 1132.3 1829.52 1132.3C1830.3 1132.3 1831.07 1132.2 1831.83 1131.99C1832.61 1131.76 1833.33 1131.43 1833.98 1131.02C1834.63 1130.57 1835.19 1130.05 1835.66 1129.45C1836.15 1128.83 1836.5 1128.12 1836.71 1127.34H1848.16C1848.16 1128.12 1847.99 1129.02 1847.65 1130.04C1847.31 1131.03 1846.79 1132.04 1846.09 1133.09C1845.41 1134.1 1844.55 1135.1 1843.51 1136.09C1842.47 1137.08 1841.23 1137.97 1839.8 1138.75C1838.36 1139.51 1836.74 1140.12 1834.91 1140.59C1833.12 1141.05 1831.11 1141.29 1828.9 1141.29C1826.06 1141.29 1823.4 1140.87 1820.93 1140.04ZM1822.88 1107.11C1822.02 1107.86 1821.31 1108.87 1820.73 1110.12C1820.19 1111.37 1819.91 1112.93 1819.91 1114.8H1837.22C1837.22 1112.93 1836.93 1111.37 1836.36 1110.12C1835.81 1108.87 1835.11 1107.88 1834.25 1107.15C1833.42 1106.39 1832.49 1105.87 1831.48 1105.59C1830.46 1105.27 1829.48 1105.12 1828.55 1105.12C1827.64 1105.12 1826.67 1105.27 1825.66 1105.59C1824.64 1105.87 1823.72 1106.38 1822.88 1107.11ZM1856.12 1097.42H1884.76V1106.41H1867.18V1140H1856.12V1097.42ZM1918.98 1140V1114.34H1918.78L1903.74 1140H1891.67V1097.42H1902.73V1123.67H1902.88L1918.39 1097.42H1929.99V1140H1918.98ZM1958.04 1131.84C1959.32 1131.84 1960.42 1131.59 1961.36 1131.09C1962.3 1130.57 1963.08 1129.93 1963.7 1129.18C1964.33 1128.42 1964.78 1127.62 1965.07 1126.76C1965.38 1125.9 1965.54 1125.12 1965.54 1124.41H1977.06C1977.06 1125.12 1976.93 1126.03 1976.67 1127.15C1976.44 1128.27 1976.03 1129.45 1975.46 1130.7C1974.89 1131.95 1974.12 1133.22 1973.16 1134.49C1972.22 1135.74 1971.03 1136.88 1969.6 1137.89C1968.2 1138.88 1966.54 1139.69 1964.64 1140.31C1962.74 1140.96 1960.54 1141.29 1958.04 1141.29C1954.78 1141.29 1951.91 1140.79 1949.41 1139.8C1946.93 1138.82 1944.85 1137.37 1943.16 1135.47C1941.49 1133.54 1940.21 1131.17 1939.33 1128.36C1938.47 1125.55 1938.04 1122.33 1938.04 1118.71C1938.04 1115.09 1938.51 1111.89 1939.45 1109.1C1940.41 1106.29 1941.76 1103.93 1943.51 1102.03C1945.25 1100.1 1947.35 1098.65 1949.8 1097.66C1952.27 1096.67 1955.02 1096.17 1958.04 1096.17C1959.34 1096.17 1960.68 1096.28 1962.06 1096.48C1963.47 1096.69 1964.85 1097.06 1966.2 1097.58C1967.56 1098.07 1968.85 1098.72 1970.07 1099.53C1971.32 1100.34 1972.43 1101.35 1973.39 1102.58C1974.38 1103.78 1975.19 1105.2 1975.81 1106.84C1976.46 1108.45 1976.88 1110.33 1977.06 1112.46H1965.54C1965.33 1111.34 1965.04 1110.36 1964.68 1109.53C1964.32 1108.67 1963.83 1107.96 1963.23 1107.38C1962.66 1106.78 1961.95 1106.34 1961.09 1106.05C1960.25 1105.74 1959.24 1105.59 1958.04 1105.59C1956.19 1105.59 1954.71 1106.02 1953.59 1106.88C1952.49 1107.73 1951.65 1108.82 1951.05 1110.12C1950.45 1111.42 1950.04 1112.84 1949.84 1114.38C1949.65 1115.91 1949.56 1117.36 1949.56 1118.71C1949.56 1120.12 1949.64 1121.6 1949.8 1123.16C1949.95 1124.7 1950.32 1126.12 1950.89 1127.42C1951.46 1128.7 1952.31 1129.75 1953.43 1130.59C1954.55 1131.42 1956.09 1131.84 1958.04 1131.84ZM2018.23 1097.42V1106.41H2005.34V1140H1994.33V1106.41H1981.44V1097.42H2018.23ZM2040.66 1097.93C2041.67 1097.33 2042.79 1096.89 2044.02 1096.6C2045.27 1096.32 2046.67 1096.17 2048.23 1096.17C2049.54 1096.17 2050.88 1096.33 2052.26 1096.64C2053.64 1096.95 2054.98 1097.46 2056.28 1098.16C2057.61 1098.84 2058.86 1099.74 2060.03 1100.86C2061.2 1101.95 2062.23 1103.31 2063.12 1104.92C2064 1106.54 2064.71 1108.42 2065.23 1110.59C2065.75 1112.72 2066.01 1115.17 2066.01 1117.93C2066.01 1121.37 2065.63 1124.52 2064.88 1127.38C2064.15 1130.25 2063.03 1132.71 2061.52 1134.77C2060.03 1136.82 2058.14 1138.42 2055.85 1139.57C2053.59 1140.72 2050.92 1141.29 2047.84 1141.29C2046.78 1141.29 2045.7 1141.18 2044.6 1140.98C2043.51 1140.77 2042.44 1140.42 2041.4 1139.92C2040.36 1139.43 2039.37 1138.76 2038.43 1137.93C2037.52 1137.07 2036.71 1136 2036.01 1134.73H2035.85V1156.48H2024.8V1097.42H2035.34V1103.52H2035.5C2036.26 1102.24 2037.05 1101.15 2037.88 1100.23C2038.72 1099.3 2039.64 1098.53 2040.66 1097.93ZM2038.9 1129.49C2039.6 1130.2 2040.45 1130.77 2041.44 1131.21C2042.43 1131.63 2043.6 1131.84 2044.95 1131.84C2046.31 1131.84 2047.48 1131.63 2048.47 1131.21C2049.46 1130.77 2050.3 1130.2 2051.01 1129.49C2051.71 1128.79 2052.28 1127.98 2052.73 1127.07C2053.2 1126.16 2053.56 1125.22 2053.82 1124.26C2054.08 1123.27 2054.25 1122.3 2054.33 1121.37C2054.43 1120.4 2054.48 1119.52 2054.48 1118.71C2054.48 1117.23 2054.32 1115.73 2053.98 1114.22C2053.64 1112.71 2053.09 1111.35 2052.34 1110.16C2051.61 1108.96 2050.63 1107.98 2049.41 1107.23C2048.18 1106.47 2046.7 1106.09 2044.95 1106.09C2043.18 1106.09 2041.68 1106.47 2040.46 1107.23C2039.26 1107.98 2038.29 1108.96 2037.53 1110.16C2036.8 1111.35 2036.27 1112.71 2035.93 1114.22C2035.59 1115.73 2035.42 1117.23 2035.42 1118.71C2035.42 1119.52 2035.46 1120.4 2035.54 1121.37C2035.64 1122.3 2035.83 1123.27 2036.09 1124.26C2036.35 1125.22 2036.7 1126.16 2037.14 1127.07C2037.61 1127.98 2038.2 1128.79 2038.9 1129.49ZM2102.18 1113.05C2104.24 1113.59 2105.98 1114.44 2107.41 1115.59C2108.85 1116.73 2109.94 1118.19 2110.7 1119.96C2111.45 1121.71 2111.83 1123.78 2111.83 1126.17C2111.83 1128.33 2111.52 1130.18 2110.89 1131.72C2110.27 1133.26 2109.46 1134.54 2108.47 1135.59C2107.51 1136.6 2106.42 1137.41 2105.23 1138.01C2104.03 1138.58 2102.86 1139.02 2101.71 1139.34C2100.57 1139.62 2099.5 1139.8 2098.51 1139.88C2097.54 1139.96 2096.8 1140 2096.28 1140H2074.02V1097.42H2085.07V1112.23H2095.11C2097.74 1112.23 2100.1 1112.5 2102.18 1113.05ZM2127.77 1097.42V1140H2116.71V1097.42H2127.77ZM2092.22 1120.55H2085.07V1131.68H2093.16C2094.02 1131.68 2094.86 1131.61 2095.7 1131.48C2096.55 1131.33 2097.32 1131.05 2098 1130.66C2098.7 1130.25 2099.26 1129.69 2099.68 1128.98C2100.1 1128.26 2100.3 1127.32 2100.3 1126.17C2100.3 1125.05 2100.08 1124.13 2099.64 1123.4C2099.22 1122.67 2098.64 1122.1 2097.88 1121.68C2097.15 1121.26 2096.29 1120.98 2095.3 1120.82C2094.34 1120.64 2093.31 1120.55 2092.22 1120.55Z" fill="black"/>
</g>
<g id="Block_5">
<rect id="Rectangle_6" x="121" y="953" width="644" height="319" fill="white" stroke="black" stroke-width="6"/>
<path id="&#208;&#145;&#208;&#187;&#208;&#190;&#208;&#186;_5" d="M375.383 1059.27C376.737 1059.33 378.169 1059.52 379.68 1059.86C381.216 1060.17 382.753 1060.68 384.289 1061.38C385.852 1062.09 387.258 1063.09 388.508 1064.39C389.758 1065.67 390.773 1067.31 391.555 1069.31C392.336 1071.29 392.727 1073.74 392.727 1076.66C392.727 1079.55 392.336 1081.98 391.555 1083.96C390.773 1085.94 389.771 1087.58 388.547 1088.88C387.349 1090.16 386.008 1091.15 384.523 1091.85C383.039 1092.53 381.594 1093.04 380.188 1093.38C378.807 1093.69 377.531 1093.87 376.359 1093.92C375.214 1093.97 374.367 1094 373.82 1094H345.812V1036.58H387.609V1046.46H357.805V1059.2H372.062C372.922 1059.2 374.029 1059.22 375.383 1059.27ZM357.805 1084.08H370.773C371.867 1084.08 372.987 1084 374.133 1083.84C375.305 1083.69 376.372 1083.35 377.336 1082.83C378.326 1082.31 379.133 1081.54 379.758 1080.52C380.383 1079.48 380.695 1078.1 380.695 1076.38C380.695 1074.59 380.383 1073.18 379.758 1072.16C379.159 1071.12 378.365 1070.34 377.375 1069.82C376.385 1069.3 375.266 1068.97 374.016 1068.84C372.792 1068.71 371.555 1068.65 370.305 1068.65H357.805V1084.08ZM418.469 1060.41L418.234 1068.34C418.104 1072.79 417.818 1076.7 417.375 1080.05C416.932 1083.41 416.203 1086.23 415.188 1088.49C414.198 1090.73 412.844 1092.42 411.125 1093.57C409.432 1094.72 407.258 1095.29 404.602 1095.29C403.352 1095.29 402.258 1095.21 401.32 1095.05C400.383 1094.92 399.615 1094.73 399.016 1094.47V1085.21C399.38 1085.37 399.836 1085.51 400.383 1085.64C400.956 1085.77 401.646 1085.84 402.453 1085.84C403.286 1085.84 404.029 1085.59 404.68 1085.09C405.331 1084.57 405.891 1083.65 406.359 1082.32C406.828 1080.97 407.193 1079.1 407.453 1076.73C407.714 1074.36 407.883 1071.3 407.961 1067.55L408.273 1051.42H442.531V1094H431.516V1060.41H418.469ZM464.289 1093.61C461.607 1092.49 459.315 1090.93 457.414 1088.92C455.539 1086.92 454.094 1084.53 453.078 1081.77C452.089 1079.01 451.594 1075.99 451.594 1072.71C451.594 1069.43 452.089 1066.41 453.078 1063.65C454.094 1060.89 455.539 1058.52 457.414 1056.54C459.315 1054.53 461.607 1052.97 464.289 1051.85C466.971 1050.73 469.992 1050.17 473.352 1050.17C476.763 1050.17 479.81 1050.73 482.492 1051.85C485.201 1052.97 487.479 1054.53 489.328 1056.54C491.203 1058.52 492.635 1060.89 493.625 1063.65C494.615 1066.41 495.109 1069.43 495.109 1072.71C495.109 1075.99 494.615 1079.01 493.625 1081.77C492.635 1084.53 491.203 1086.92 489.328 1088.92C487.479 1090.93 485.201 1092.49 482.492 1093.61C479.81 1094.73 476.763 1095.29 473.352 1095.29C469.992 1095.29 466.971 1094.73 464.289 1093.61ZM463.664 1077.48C464.003 1079.07 464.576 1080.48 465.383 1081.73C466.19 1082.96 467.245 1083.95 468.547 1084.7C469.849 1085.46 471.451 1085.84 473.352 1085.84C475.331 1085.84 476.971 1085.47 478.273 1084.74C479.602 1083.99 480.656 1083.01 481.438 1081.81C482.219 1080.59 482.766 1079.2 483.078 1077.63C483.417 1076.04 483.586 1074.4 483.586 1072.71C483.586 1071.04 483.417 1069.42 483.078 1067.83C482.766 1066.24 482.219 1064.85 481.438 1063.65C480.656 1062.42 479.602 1061.45 478.273 1060.72C476.971 1059.96 475.331 1059.59 473.352 1059.59C471.451 1059.59 469.849 1059.96 468.547 1060.72C467.245 1061.47 466.19 1062.48 465.383 1063.73C464.576 1064.95 463.99 1066.36 463.625 1067.95C463.286 1069.51 463.117 1071.1 463.117 1072.71C463.117 1074.33 463.299 1075.91 463.664 1077.48ZM545.852 1094H531.438L518.938 1076.03L514.484 1080.52V1094H503.43V1051.42H514.484V1067.59L530.422 1051.42H545.109L527.531 1069.12L545.852 1094ZM226.789 1174.79L235.5 1143.42H247.336L232.688 1185.3C231.854 1187.74 231.099 1189.87 230.422 1191.66C229.745 1193.49 229.068 1195.05 228.391 1196.35C227.74 1197.68 227.036 1198.76 226.281 1199.59C225.552 1200.45 224.693 1201.13 223.703 1201.62C222.714 1202.12 221.555 1202.46 220.227 1202.64C218.898 1202.85 217.323 1202.95 215.5 1202.95C214.771 1202.95 214.081 1202.93 213.43 1202.88C212.805 1202.85 212.049 1202.8 211.164 1202.72V1193.77C211.607 1193.83 212.154 1193.88 212.805 1193.93C213.456 1193.98 214.003 1194.01 214.445 1194.01C215.617 1194.01 216.607 1193.79 217.414 1193.34C218.221 1192.9 218.859 1192.37 219.328 1191.74C219.823 1191.14 220.174 1190.52 220.383 1189.87C220.591 1189.22 220.695 1188.67 220.695 1188.23L205.109 1143.42H217.492L226.633 1174.79H226.789ZM253.781 1143.42H292.102V1186H281.086V1152.41H264.836V1186H253.781V1143.42ZM318.234 1143.93C319.25 1143.33 320.37 1142.89 321.594 1142.6C322.844 1142.32 324.25 1142.17 325.812 1142.17C327.115 1142.17 328.456 1142.33 329.836 1142.64C331.216 1142.95 332.557 1143.46 333.859 1144.16C335.188 1144.84 336.438 1145.74 337.609 1146.86C338.781 1147.95 339.81 1149.31 340.695 1150.92C341.581 1152.54 342.284 1154.42 342.805 1156.59C343.326 1158.72 343.586 1161.17 343.586 1163.93C343.586 1167.37 343.208 1170.52 342.453 1173.38C341.724 1176.25 340.604 1178.71 339.094 1180.77C337.609 1182.82 335.721 1184.42 333.43 1185.57C331.164 1186.72 328.495 1187.29 325.422 1187.29C324.354 1187.29 323.273 1187.18 322.18 1186.98C321.086 1186.77 320.018 1186.42 318.977 1185.92C317.935 1185.43 316.945 1184.76 316.008 1183.93C315.096 1183.07 314.289 1182 313.586 1180.73H313.43V1202.48H302.375V1143.42H312.922V1149.52H313.078C313.833 1148.24 314.628 1147.15 315.461 1146.23C316.294 1145.3 317.219 1144.53 318.234 1143.93ZM316.477 1175.49C317.18 1176.2 318.026 1176.77 319.016 1177.21C320.005 1177.63 321.177 1177.84 322.531 1177.84C323.885 1177.84 325.057 1177.63 326.047 1177.21C327.036 1176.77 327.883 1176.2 328.586 1175.49C329.289 1174.79 329.862 1173.98 330.305 1173.07C330.773 1172.16 331.138 1171.22 331.398 1170.26C331.659 1169.27 331.828 1168.3 331.906 1167.37C332.01 1166.4 332.062 1165.52 332.062 1164.71C332.062 1163.23 331.893 1161.73 331.555 1160.22C331.216 1158.71 330.669 1157.35 329.914 1156.16C329.185 1154.96 328.208 1153.98 326.984 1153.23C325.76 1152.47 324.276 1152.09 322.531 1152.09C320.76 1152.09 319.263 1152.47 318.039 1153.23C316.841 1153.98 315.865 1154.96 315.109 1156.16C314.38 1157.35 313.846 1158.71 313.508 1160.22C313.169 1161.73 313 1163.23 313 1164.71C313 1165.52 313.039 1166.4 313.117 1167.37C313.221 1168.3 313.404 1169.27 313.664 1170.26C313.924 1171.22 314.276 1172.16 314.719 1173.07C315.188 1173.98 315.773 1174.79 316.477 1175.49ZM371.047 1159.44C371.438 1159.39 371.854 1159.31 372.297 1159.2C372.766 1159.1 373.195 1158.93 373.586 1158.7C373.977 1158.43 374.302 1158.1 374.562 1157.68C374.823 1157.24 374.953 1156.65 374.953 1155.92C374.953 1155.22 374.836 1154.58 374.602 1154.01C374.393 1153.41 374.029 1152.9 373.508 1152.48C372.987 1152.04 372.284 1151.7 371.398 1151.47C370.539 1151.23 369.458 1151.12 368.156 1151.12C366.672 1151.12 365.474 1151.27 364.562 1151.59C363.677 1151.87 362.974 1152.29 362.453 1152.84C361.932 1153.36 361.555 1153.98 361.32 1154.71C361.086 1155.41 360.917 1156.17 360.812 1156.98H349.758C349.758 1156.46 349.836 1155.74 349.992 1154.83C350.174 1153.89 350.487 1152.88 350.93 1151.78C351.398 1150.69 352.036 1149.58 352.844 1148.46C353.677 1147.34 354.758 1146.33 356.086 1145.41C357.44 1144.48 359.081 1143.71 361.008 1143.11C362.935 1142.51 365.24 1142.2 367.922 1142.17C371.724 1142.17 374.797 1142.56 377.141 1143.34C379.51 1144.1 381.346 1145.1 382.648 1146.35C383.977 1147.58 384.862 1148.96 385.305 1150.49C385.773 1152 386.008 1153.51 386.008 1155.02V1177.6C386.008 1178.88 386.073 1179.93 386.203 1180.77C386.359 1181.57 386.555 1182.22 386.789 1182.72C387.023 1183.19 387.284 1183.54 387.57 1183.77C387.883 1183.98 388.208 1184.14 388.547 1184.24V1186H376.32C376.112 1185.51 375.878 1184.85 375.617 1184.05C375.383 1183.21 375.266 1182.21 375.266 1181.04C374.406 1181.92 373.56 1182.74 372.727 1183.5C371.919 1184.26 371.008 1184.92 369.992 1185.49C368.977 1186.04 367.805 1186.47 366.477 1186.78C365.148 1187.12 363.547 1187.29 361.672 1187.29C359.771 1187.29 358.013 1187 356.398 1186.43C354.81 1185.88 353.43 1185.06 352.258 1183.97C351.086 1182.88 350.174 1181.51 349.523 1179.87C348.872 1178.23 348.547 1176.33 348.547 1174.16C348.547 1172.42 348.82 1170.8 349.367 1169.32C349.914 1167.81 350.682 1166.49 351.672 1165.38C352.688 1164.23 353.911 1163.29 355.344 1162.56C356.802 1161.81 358.43 1161.3 360.227 1161.04L371.047 1159.44ZM363 1179.12C363.677 1179.33 364.406 1179.44 365.188 1179.44C365.604 1179.44 366.138 1179.4 366.789 1179.32C367.44 1179.22 368.13 1179.03 368.859 1178.77C369.589 1178.51 370.318 1178.16 371.047 1177.72C371.776 1177.25 372.427 1176.65 373 1175.92C373.573 1175.19 374.042 1174.31 374.406 1173.27C374.771 1172.2 374.953 1170.95 374.953 1169.52V1165.22C374.276 1165.58 373.599 1165.92 372.922 1166.23C372.245 1166.52 371.346 1166.77 370.227 1166.98L367.297 1167.52C366.021 1167.76 364.901 1168.03 363.938 1168.34C362.974 1168.66 362.167 1169.07 361.516 1169.59C360.891 1170.09 360.409 1170.7 360.07 1171.43C359.758 1172.16 359.602 1173.07 359.602 1174.16C359.602 1175.08 359.745 1175.87 360.031 1176.55C360.318 1177.2 360.708 1177.74 361.203 1178.19C361.724 1178.6 362.323 1178.92 363 1179.12ZM420.305 1186H396.438V1143.42H418.469C420.422 1143.42 422.297 1143.59 424.094 1143.93C425.917 1144.27 427.518 1144.87 428.898 1145.73C430.279 1146.56 431.372 1147.71 432.18 1149.16C433.013 1150.6 433.43 1152.42 433.43 1154.63C433.43 1155.91 433.286 1157.02 433 1157.95C432.74 1158.89 432.375 1159.7 431.906 1160.38C431.438 1161.03 430.891 1161.59 430.266 1162.05C429.667 1162.5 429.042 1162.88 428.391 1163.19C430.526 1163.94 432.154 1165.15 433.273 1166.82C434.393 1168.46 434.953 1170.43 434.953 1172.72C434.953 1174.72 434.602 1176.55 433.898 1178.19C433.221 1179.8 432.245 1181.2 430.969 1182.37C429.719 1183.51 428.182 1184.41 426.359 1185.06C424.562 1185.69 422.544 1186 420.305 1186ZM419.445 1167.76C418.482 1167.6 417.336 1167.52 416.008 1167.52H407.492V1178.15H416.008C417.596 1178.15 418.872 1177.98 419.836 1177.64C420.826 1177.3 421.581 1176.87 422.102 1176.35C422.648 1175.83 423 1175.26 423.156 1174.63C423.339 1174.01 423.43 1173.42 423.43 1172.88C423.43 1171.83 423.286 1170.97 423 1170.3C422.74 1169.59 422.31 1169.03 421.711 1168.62C421.138 1168.2 420.383 1167.91 419.445 1167.76ZM421.125 1158.97C421.594 1158.6 421.919 1158.15 422.102 1157.6C422.31 1157.03 422.414 1156.36 422.414 1155.61C422.414 1154.98 422.31 1154.41 422.102 1153.89C421.919 1153.34 421.594 1152.89 421.125 1152.52C420.656 1152.13 420.031 1151.83 419.25 1151.62C418.469 1151.39 417.492 1151.27 416.32 1151.27H407.492V1160.14H416.008C417.258 1160.14 418.299 1160.05 419.133 1159.87C419.966 1159.66 420.63 1159.36 421.125 1158.97ZM460.383 1152.41L460.148 1160.34C460.018 1164.79 459.732 1168.7 459.289 1172.05C458.846 1175.41 458.117 1178.23 457.102 1180.49C456.112 1182.73 454.758 1184.42 453.039 1185.57C451.346 1186.72 449.172 1187.29 446.516 1187.29C445.266 1187.29 444.172 1187.21 443.234 1187.05C442.297 1186.92 441.529 1186.73 440.93 1186.47V1177.21C441.294 1177.37 441.75 1177.51 442.297 1177.64C442.87 1177.77 443.56 1177.84 444.367 1177.84C445.201 1177.84 445.943 1177.59 446.594 1177.09C447.245 1176.57 447.805 1175.65 448.273 1174.32C448.742 1172.97 449.107 1171.1 449.367 1168.73C449.628 1166.36 449.797 1163.3 449.875 1159.55L450.188 1143.42H484.445V1186H473.43V1152.41H460.383ZM505.383 1186.04C502.883 1185.18 500.695 1183.84 498.82 1182.02C496.971 1180.17 495.513 1177.78 494.445 1174.87C493.378 1171.95 492.844 1168.41 492.844 1164.24C492.844 1161.35 493.221 1158.58 493.977 1155.92C494.758 1153.24 495.956 1150.88 497.57 1148.85C499.211 1146.82 501.294 1145.21 503.82 1144.01C506.372 1142.78 509.432 1142.17 513 1142.17C516.776 1142.17 519.953 1142.8 522.531 1144.05C525.109 1145.27 527.18 1147.02 528.742 1149.28C530.331 1151.55 531.464 1154.28 532.141 1157.48C532.818 1160.69 533.156 1164.24 533.156 1168.15H503.977C503.977 1168.54 504.016 1169.06 504.094 1169.71C504.172 1170.36 504.328 1171.07 504.562 1171.82C504.797 1172.58 505.135 1173.34 505.578 1174.12C506.021 1174.88 506.607 1175.57 507.336 1176.2C508.091 1176.82 509.003 1177.33 510.07 1177.72C511.164 1178.11 512.466 1178.3 513.977 1178.3C514.758 1178.3 515.526 1178.2 516.281 1177.99C517.062 1177.76 517.779 1177.43 518.43 1177.02C519.081 1176.57 519.641 1176.05 520.109 1175.45C520.604 1174.83 520.956 1174.12 521.164 1173.34H532.609C532.609 1174.12 532.44 1175.02 532.102 1176.04C531.763 1177.03 531.242 1178.04 530.539 1179.09C529.862 1180.1 529.003 1181.1 527.961 1182.09C526.919 1183.08 525.682 1183.97 524.25 1184.75C522.818 1185.51 521.19 1186.12 519.367 1186.59C517.57 1187.05 515.565 1187.29 513.352 1187.29C510.513 1187.29 507.857 1186.87 505.383 1186.04ZM507.336 1153.11C506.477 1153.86 505.76 1154.87 505.188 1156.12C504.641 1157.37 504.367 1158.93 504.367 1160.8H521.672C521.672 1158.93 521.385 1157.37 520.812 1156.12C520.266 1154.87 519.562 1153.88 518.703 1153.15C517.87 1152.39 516.945 1151.87 515.93 1151.59C514.914 1151.27 513.938 1151.12 513 1151.12C512.089 1151.12 511.125 1151.27 510.109 1151.59C509.094 1151.87 508.169 1152.38 507.336 1153.11ZM567.883 1167.76H551.633V1186H540.578V1143.42H551.633V1158.81H567.883V1143.42H578.898V1186H567.883V1167.76ZM616.789 1186V1160.34H616.594L601.555 1186H589.484V1143.42H600.539V1169.67H600.695L616.203 1143.42H627.805V1186H616.789ZM640.148 1169.32C640.565 1168.72 641.138 1168.2 641.867 1167.76C642.596 1167.32 643.573 1166.91 644.797 1166.55C644.406 1166.44 643.964 1166.3 643.469 1166.12C643 1165.91 642.492 1165.65 641.945 1165.34C641.424 1165 640.891 1164.58 640.344 1164.09C639.823 1163.57 639.328 1162.93 638.859 1162.17C638.521 1161.68 638.247 1161.16 638.039 1160.61C637.857 1160.04 637.714 1159.49 637.609 1158.97C637.505 1158.42 637.44 1157.91 637.414 1157.45C637.388 1156.98 637.375 1156.57 637.375 1156.23C637.375 1154.72 637.557 1153.38 637.922 1152.21C638.286 1151.01 638.755 1149.97 639.328 1149.09C639.901 1148.2 640.552 1147.45 641.281 1146.82C642.01 1146.2 642.753 1145.69 643.508 1145.3C644.341 1144.83 645.266 1144.48 646.281 1144.24C647.297 1143.98 648.286 1143.8 649.25 1143.7C650.214 1143.57 651.112 1143.49 651.945 1143.46C652.779 1143.43 653.43 1143.42 653.898 1143.42H676.789V1186H665.695V1170.34H658.469C656.88 1170.34 655.513 1170.4 654.367 1170.53C653.247 1170.64 652.323 1170.91 651.594 1171.35C650.865 1171.77 650.305 1172.39 649.914 1173.23C649.549 1174.06 649.341 1175.19 649.289 1176.62L649.133 1180.73C649.081 1181.33 649.003 1182.11 648.898 1183.07C648.82 1184.03 648.573 1185.01 648.156 1186H636.477C636.815 1185.43 637.089 1184.88 637.297 1184.36C637.505 1183.81 637.661 1183.29 637.766 1182.8C637.896 1182.28 637.987 1181.76 638.039 1181.23C638.117 1180.71 638.182 1180.17 638.234 1179.59L638.781 1174.48C638.911 1173.33 639.068 1172.34 639.25 1171.51C639.432 1170.67 639.732 1169.95 640.148 1169.32ZM649.68 1160.26C650.122 1160.96 650.695 1161.48 651.398 1161.82C652.128 1162.16 652.935 1162.35 653.82 1162.41C654.706 1162.46 655.591 1162.48 656.477 1162.48H665.695V1151.74H656.789C655.852 1151.74 654.914 1151.77 653.977 1151.82C653.039 1151.87 652.193 1152.08 651.438 1152.45C650.708 1152.78 650.109 1153.33 649.641 1154.09C649.198 1154.82 648.977 1155.86 648.977 1157.21C648.977 1158.54 649.211 1159.55 649.68 1160.26Z" fill="black"/>
</g>
<g id="Block_6">
<rect id="Rectangle_7" x="3" y="1603" width="1119" height="319" fill="white" stroke="black" stroke-width="6"/>
<path id="&#208;&#145;&#208;&#187;&#208;&#190;&#208;&#186;_6" d="M500.586 1733.24C502.357 1733.68 503.893 1734.28 505.195 1735.04C506.497 1735.79 507.591 1736.67 508.477 1737.66C509.362 1738.65 510.065 1739.69 510.586 1740.78C511.107 1741.85 511.471 1742.94 511.68 1744.06C511.914 1745.18 512.031 1746.25 512.031 1747.27C512.031 1748.72 511.901 1750.04 511.641 1751.21C511.38 1752.36 510.964 1753.41 510.391 1754.38C509.844 1755.31 509.115 1756.17 508.203 1756.95C507.318 1757.71 506.25 1758.4 505 1759.02C506.927 1759.75 508.477 1760.65 509.648 1761.72C510.82 1762.79 511.719 1763.95 512.344 1765.2C512.969 1766.42 513.385 1767.7 513.594 1769.02C513.802 1770.33 513.906 1771.59 513.906 1772.81C513.906 1775.6 513.398 1778.06 512.383 1780.2C511.367 1782.33 509.935 1784.13 508.086 1785.59C506.237 1787.02 503.984 1788.11 501.328 1788.87C498.698 1789.62 495.768 1790 492.539 1790H466.211V1732.58H494.375C496.719 1732.58 498.789 1732.8 500.586 1733.24ZM495.859 1764.88C494.714 1764.73 493.555 1764.65 492.383 1764.65H477.734V1780.08H492.695C494.023 1780.08 495.247 1779.92 496.367 1779.61C497.487 1779.3 498.451 1778.83 499.258 1778.2C500.091 1777.55 500.729 1776.74 501.172 1775.78C501.641 1774.79 501.875 1773.63 501.875 1772.3C501.875 1770.64 501.602 1769.31 501.055 1768.32C500.508 1767.3 499.779 1766.52 498.867 1765.98C497.982 1765.43 496.979 1765.07 495.859 1764.88ZM498.125 1753.67C498.854 1753.15 499.44 1752.47 499.883 1751.64C500.326 1750.81 500.547 1749.8 500.547 1748.63C500.547 1747.41 500.339 1746.41 499.922 1745.62C499.531 1744.82 498.984 1744.18 498.281 1743.71C497.578 1743.24 496.758 1742.92 495.82 1742.73C494.883 1742.55 493.893 1742.46 492.852 1742.46H477.734V1755.2H492.539C493.581 1755.2 494.583 1755.08 495.547 1754.84C496.51 1754.61 497.37 1754.22 498.125 1753.67ZM546.914 1790H523.047V1747.42H545.078C547.031 1747.42 548.906 1747.59 550.703 1747.93C552.526 1748.27 554.128 1748.87 555.508 1749.73C556.888 1750.56 557.982 1751.71 558.789 1753.16C559.622 1754.6 560.039 1756.42 560.039 1758.63C560.039 1759.91 559.896 1761.02 559.609 1761.95C559.349 1762.89 558.984 1763.7 558.516 1764.38C558.047 1765.03 557.5 1765.59 556.875 1766.05C556.276 1766.5 555.651 1766.88 555 1767.19C557.135 1767.94 558.763 1769.15 559.883 1770.82C561.003 1772.46 561.562 1774.43 561.562 1776.72C561.562 1778.72 561.211 1780.55 560.508 1782.19C559.831 1783.8 558.854 1785.2 557.578 1786.37C556.328 1787.51 554.792 1788.41 552.969 1789.06C551.172 1789.69 549.154 1790 546.914 1790ZM546.055 1771.76C545.091 1771.6 543.945 1771.52 542.617 1771.52H534.102V1782.15H542.617C544.206 1782.15 545.482 1781.98 546.445 1781.64C547.435 1781.3 548.19 1780.87 548.711 1780.35C549.258 1779.83 549.609 1779.26 549.766 1778.63C549.948 1778.01 550.039 1777.42 550.039 1776.88C550.039 1775.83 549.896 1774.97 549.609 1774.3C549.349 1773.59 548.919 1773.03 548.32 1772.62C547.747 1772.2 546.992 1771.91 546.055 1771.76ZM547.734 1762.97C548.203 1762.6 548.529 1762.15 548.711 1761.6C548.919 1761.03 549.023 1760.36 549.023 1759.61C549.023 1758.98 548.919 1758.41 548.711 1757.89C548.529 1757.34 548.203 1756.89 547.734 1756.52C547.266 1756.13 546.641 1755.83 545.859 1755.62C545.078 1755.39 544.102 1755.27 542.93 1755.27H534.102V1764.14H542.617C543.867 1764.14 544.909 1764.05 545.742 1763.87C546.576 1763.66 547.24 1763.36 547.734 1762.97ZM580.625 1789.61C577.943 1788.49 575.651 1786.93 573.75 1784.92C571.875 1782.92 570.43 1780.53 569.414 1777.77C568.424 1775.01 567.93 1771.99 567.93 1768.71C567.93 1765.43 568.424 1762.41 569.414 1759.65C570.43 1756.89 571.875 1754.52 573.75 1752.54C575.651 1750.53 577.943 1748.97 580.625 1747.85C583.307 1746.73 586.328 1746.17 589.688 1746.17C593.099 1746.17 596.146 1746.73 598.828 1747.85C601.536 1748.97 603.815 1750.53 605.664 1752.54C607.539 1754.52 608.971 1756.89 609.961 1759.65C610.951 1762.41 611.445 1765.43 611.445 1768.71C611.445 1771.99 610.951 1775.01 609.961 1777.77C608.971 1780.53 607.539 1782.92 605.664 1784.92C603.815 1786.93 601.536 1788.49 598.828 1789.61C596.146 1790.73 593.099 1791.29 589.688 1791.29C586.328 1791.29 583.307 1790.73 580.625 1789.61ZM580 1773.48C580.339 1775.07 580.911 1776.48 581.719 1777.73C582.526 1778.96 583.581 1779.95 584.883 1780.7C586.185 1781.46 587.786 1781.84 589.688 1781.84C591.667 1781.84 593.307 1781.47 594.609 1780.74C595.938 1779.99 596.992 1779.01 597.773 1777.81C598.555 1776.59 599.102 1775.2 599.414 1773.63C599.753 1772.04 599.922 1770.4 599.922 1768.71C599.922 1767.04 599.753 1765.42 599.414 1763.83C599.102 1762.24 598.555 1760.85 597.773 1759.65C596.992 1758.42 595.938 1757.45 594.609 1756.72C593.307 1755.96 591.667 1755.59 589.688 1755.59C587.786 1755.59 586.185 1755.96 584.883 1756.72C583.581 1757.47 582.526 1758.48 581.719 1759.73C580.911 1760.95 580.326 1762.36 579.961 1763.95C579.622 1765.51 579.453 1767.1 579.453 1768.71C579.453 1770.33 579.635 1771.91 580 1773.48ZM654.102 1790H626.172V1800.23H615.781V1781.05H620.195C621.237 1779.1 622.096 1777.06 622.773 1774.92C623.477 1772.76 624.036 1770.59 624.453 1768.4C624.87 1766.21 625.169 1764.08 625.352 1761.99C625.534 1759.88 625.664 1757.9 625.742 1756.05C625.82 1754.21 625.846 1752.54 625.82 1751.05C625.82 1749.57 625.833 1748.36 625.859 1747.42H659.141V1781.05H664.492V1800.23H654.102V1790ZM633.008 1776.84C632.539 1778.35 631.966 1779.75 631.289 1781.05H648.125V1756.41H635.469C635.469 1757.19 635.456 1758.15 635.43 1759.3C635.43 1760.44 635.378 1761.72 635.273 1763.12C635.195 1764.51 635.065 1765.98 634.883 1767.54C634.727 1769.1 634.479 1770.66 634.141 1772.23C633.828 1773.79 633.451 1775.33 633.008 1776.84Z" fill="black"/>
</g>
<g id="Block_7">
<rect id="Rectangle_8" x="1248" y="1603" width="1119" height="319" fill="white" stroke="black" stroke-width="6"/>
<path id="&#208;&#145;&#208;&#187;&#208;&#190;&#208;&#186;_7" d="M1713.44 1733.24C1715.21 1733.68 1716.74 1734.28 1718.05 1735.04C1719.35 1735.79 1720.44 1736.67 1721.33 1737.66C1722.21 1738.65 1722.92 1739.69 1723.44 1740.78C1723.96 1741.85 1724.32 1742.94 1724.53 1744.06C1724.77 1745.18 1724.88 1746.25 1724.88 1747.27C1724.88 1748.72 1724.75 1750.04 1724.49 1751.21C1724.23 1752.36 1723.82 1753.41 1723.24 1754.38C1722.7 1755.31 1721.97 1756.17 1721.05 1756.95C1720.17 1757.71 1719.1 1758.4 1717.85 1759.02C1719.78 1759.75 1721.33 1760.65 1722.5 1761.72C1723.67 1762.79 1724.57 1763.95 1725.2 1765.2C1725.82 1766.42 1726.24 1767.7 1726.45 1769.02C1726.65 1770.33 1726.76 1771.59 1726.76 1772.81C1726.76 1775.6 1726.25 1778.06 1725.23 1780.2C1724.22 1782.33 1722.79 1784.13 1720.94 1785.59C1719.09 1787.02 1716.84 1788.11 1714.18 1788.87C1711.55 1789.62 1708.62 1790 1705.39 1790H1679.06V1732.58H1707.23C1709.57 1732.58 1711.64 1732.8 1713.44 1733.24ZM1708.71 1764.88C1707.57 1764.73 1706.41 1764.65 1705.23 1764.65H1690.59V1780.08H1705.55C1706.88 1780.08 1708.1 1779.92 1709.22 1779.61C1710.34 1779.3 1711.3 1778.83 1712.11 1778.2C1712.94 1777.55 1713.58 1776.74 1714.02 1775.78C1714.49 1774.79 1714.73 1773.63 1714.73 1772.3C1714.73 1770.64 1714.45 1769.31 1713.91 1768.32C1713.36 1767.3 1712.63 1766.52 1711.72 1765.98C1710.83 1765.43 1709.83 1765.07 1708.71 1764.88ZM1710.98 1753.67C1711.71 1753.15 1712.29 1752.47 1712.73 1751.64C1713.18 1750.81 1713.4 1749.8 1713.4 1748.63C1713.4 1747.41 1713.19 1746.41 1712.77 1745.62C1712.38 1744.82 1711.84 1744.18 1711.13 1743.71C1710.43 1743.24 1709.61 1742.92 1708.67 1742.73C1707.73 1742.55 1706.74 1742.46 1705.7 1742.46H1690.59V1755.2H1705.39C1706.43 1755.2 1707.43 1755.08 1708.4 1754.84C1709.36 1754.61 1710.22 1754.22 1710.98 1753.67ZM1763.75 1763.05C1765.81 1763.59 1767.55 1764.44 1768.98 1765.59C1770.42 1766.73 1771.51 1768.19 1772.27 1769.96C1773.02 1771.71 1773.4 1773.78 1773.4 1776.17C1773.4 1778.33 1773.09 1780.18 1772.46 1781.72C1771.84 1783.26 1771.03 1784.54 1770.04 1785.59C1769.08 1786.6 1767.99 1787.41 1766.8 1788.01C1765.6 1788.58 1764.43 1789.02 1763.28 1789.34C1762.14 1789.62 1761.07 1789.8 1760.08 1789.88C1759.11 1789.96 1758.37 1790 1757.85 1790H1735.59V1747.42H1746.64V1762.23H1756.68C1759.31 1762.23 1761.67 1762.5 1763.75 1763.05ZM1789.34 1747.42V1790H1778.28V1747.42H1789.34ZM1753.79 1770.55H1746.64V1781.68H1754.73C1755.59 1781.68 1756.43 1781.61 1757.27 1781.48C1758.12 1781.33 1758.89 1781.05 1759.57 1780.66C1760.27 1780.25 1760.83 1779.69 1761.25 1778.98C1761.67 1778.26 1761.88 1777.32 1761.88 1776.17C1761.88 1775.05 1761.65 1774.13 1761.21 1773.4C1760.79 1772.67 1760.21 1772.1 1759.45 1771.68C1758.72 1771.26 1757.86 1770.98 1756.88 1770.82C1755.91 1770.64 1754.88 1770.55 1753.79 1770.55ZM1824.06 1790H1800.2V1747.42H1822.23C1824.18 1747.42 1826.05 1747.59 1827.85 1747.93C1829.67 1748.27 1831.28 1748.87 1832.66 1749.73C1834.04 1750.56 1835.13 1751.71 1835.94 1753.16C1836.77 1754.6 1837.19 1756.42 1837.19 1758.63C1837.19 1759.91 1837.04 1761.02 1836.76 1761.95C1836.5 1762.89 1836.13 1763.7 1835.66 1764.38C1835.2 1765.03 1834.65 1765.59 1834.02 1766.05C1833.42 1766.5 1832.8 1766.88 1832.15 1767.19C1834.28 1767.94 1835.91 1769.15 1837.03 1770.82C1838.15 1772.46 1838.71 1774.43 1838.71 1776.72C1838.71 1778.72 1838.36 1780.55 1837.66 1782.19C1836.98 1783.8 1836 1785.2 1834.73 1786.37C1833.48 1787.51 1831.94 1788.41 1830.12 1789.06C1828.32 1789.69 1826.3 1790 1824.06 1790ZM1823.2 1771.76C1822.24 1771.6 1821.09 1771.52 1819.77 1771.52H1811.25V1782.15H1819.77C1821.35 1782.15 1822.63 1781.98 1823.59 1781.64C1824.58 1781.3 1825.34 1780.87 1825.86 1780.35C1826.41 1779.83 1826.76 1779.26 1826.91 1778.63C1827.1 1778.01 1827.19 1777.42 1827.19 1776.88C1827.19 1775.83 1827.04 1774.97 1826.76 1774.3C1826.5 1773.59 1826.07 1773.03 1825.47 1772.62C1824.9 1772.2 1824.14 1771.91 1823.2 1771.76ZM1824.88 1762.97C1825.35 1762.6 1825.68 1762.15 1825.86 1761.6C1826.07 1761.03 1826.17 1760.36 1826.17 1759.61C1826.17 1758.98 1826.07 1758.41 1825.86 1757.89C1825.68 1757.34 1825.35 1756.89 1824.88 1756.52C1824.41 1756.13 1823.79 1755.83 1823.01 1755.62C1822.23 1755.39 1821.25 1755.27 1820.08 1755.27H1811.25V1764.14H1819.77C1821.02 1764.14 1822.06 1764.05 1822.89 1763.87C1823.72 1763.66 1824.39 1763.36 1824.88 1762.97ZM1857.77 1789.61C1855.09 1788.49 1852.8 1786.93 1850.9 1784.92C1849.02 1782.92 1847.58 1780.53 1846.56 1777.77C1845.57 1775.01 1845.08 1771.99 1845.08 1768.71C1845.08 1765.43 1845.57 1762.41 1846.56 1759.65C1847.58 1756.89 1849.02 1754.52 1850.9 1752.54C1852.8 1750.53 1855.09 1748.97 1857.77 1747.85C1860.46 1746.73 1863.48 1746.17 1866.84 1746.17C1870.25 1746.17 1873.29 1746.73 1875.98 1747.85C1878.68 1748.97 1880.96 1750.53 1882.81 1752.54C1884.69 1754.52 1886.12 1756.89 1887.11 1759.65C1888.1 1762.41 1888.59 1765.43 1888.59 1768.71C1888.59 1771.99 1888.1 1775.01 1887.11 1777.77C1886.12 1780.53 1884.69 1782.92 1882.81 1784.92C1880.96 1786.93 1878.68 1788.49 1875.98 1789.61C1873.29 1790.73 1870.25 1791.29 1866.84 1791.29C1863.48 1791.29 1860.46 1790.73 1857.77 1789.61ZM1857.15 1773.48C1857.49 1775.07 1858.06 1776.48 1858.87 1777.73C1859.67 1778.96 1860.73 1779.95 1862.03 1780.7C1863.33 1781.46 1864.93 1781.84 1866.84 1781.84C1868.82 1781.84 1870.46 1781.47 1871.76 1780.74C1873.09 1779.99 1874.14 1779.01 1874.92 1777.81C1875.7 1776.59 1876.25 1775.2 1876.56 1773.63C1876.9 1772.04 1877.07 1770.4 1877.07 1768.71C1877.07 1767.04 1876.9 1765.42 1876.56 1763.83C1876.25 1762.24 1875.7 1760.85 1874.92 1759.65C1874.14 1758.42 1873.09 1757.45 1871.76 1756.72C1870.46 1755.96 1868.82 1755.59 1866.84 1755.59C1864.93 1755.59 1863.33 1755.96 1862.03 1756.72C1860.73 1757.47 1859.67 1758.48 1858.87 1759.73C1858.06 1760.95 1857.47 1762.36 1857.11 1763.95C1856.77 1765.51 1856.6 1767.1 1856.6 1768.71C1856.6 1770.33 1856.78 1771.91 1857.15 1773.48ZM1931.25 1790H1903.32V1800.23H1892.93V1781.05H1897.34C1898.39 1779.1 1899.24 1777.06 1899.92 1774.92C1900.62 1772.76 1901.18 1770.59 1901.6 1768.4C1902.02 1766.21 1902.32 1764.08 1902.5 1761.99C1902.68 1759.88 1902.81 1757.9 1902.89 1756.05C1902.97 1754.21 1902.99 1752.54 1902.97 1751.05C1902.97 1749.57 1902.98 1748.36 1903.01 1747.42H1936.29V1781.05H1941.64V1800.23H1931.25V1790ZM1910.16 1776.84C1909.69 1778.35 1909.11 1779.75 1908.44 1781.05H1925.27V1756.41H1912.62C1912.62 1757.19 1912.6 1758.15 1912.58 1759.3C1912.58 1760.44 1912.53 1761.72 1912.42 1763.12C1912.34 1764.51 1912.21 1765.98 1912.03 1767.54C1911.88 1769.1 1911.63 1770.66 1911.29 1772.23C1910.98 1773.79 1910.6 1775.33 1910.16 1776.84Z" fill="black"/>
</g>
<g id="Group 3 Copy 6">
<path id="Line" d="M1079.5 420.529V426.529H1091.5V420.529H1085.5H1079.5ZM1085.5 322.49L1050.86 382.49H1120.14L1085.5 322.49ZM1085.5 420.529H1091.5V376.49H1085.5H1079.5V420.529H1085.5Z" fill="black"/>
<path id="Line Copy 2" d="M1278.5 329.471V323.471H1290.5V329.471H1284.5H1278.5ZM1284.5 427.51L1249.86 367.51H1319.14L1284.5 427.51ZM1284.5 329.471H1290.5V373.51H1284.5H1278.5V329.471H1284.5Z" fill="black"/>
</g>
<g id="Group 3 Copy 6_2">
<path id="Line_2" d="M1837.5 844.529V850.529H1849.5V844.529H1843.5H1837.5ZM1843.5 746.49L1808.86 806.49H1878.14L1843.5 746.49ZM1843.5 844.529H1849.5V800.49H1843.5H1837.5V844.529H1843.5Z" fill="black"/>
<path id="Line Copy 2_2" d="M2036.5 753.471V747.471H2048.5V753.471H2042.5H2036.5ZM2042.5 851.51L2007.86 791.51H2077.14L2042.5 851.51ZM2042.5 753.471H2048.5V797.51H2042.5H2036.5V753.471H2042.5Z" fill="black"/>
</g>
<path id="Line_3" d="M556.756 1599.5V1605.5H568.756V1599.5H562.756H556.756ZM562.756 1499.5L528.115 1559.5H597.397L562.756 1499.5ZM562.756 1599.5H568.756V1553.5H562.756H556.756V1599.5H562.756Z" fill="black"/>
<path id="Line Copy 2_3" d="M1802 1499.95L1802.05 1493.95L1814.05 1494.05L1814 1500.05L1808 1500L1802 1499.95ZM1807.24 1599.5L1773.06 1539.24L1842.34 1539.77L1807.24 1599.5ZM1808 1500L1814 1500.05L1813.65 1545.55L1807.65 1545.5L1801.65 1545.46L1802 1499.95L1808 1500Z" fill="black"/>
<g id="Group 3 Copy 6_3">
<path id="Line_4" d="M337.498 844.529V850.529H349.498V844.529H343.498H337.498ZM343.498 746.49L308.856 806.49H378.139L343.498 746.49ZM343.498 844.529H349.498V800.49H343.498H337.498V844.529H343.498Z" fill="black"/>
<path id="Line Copy 2_4" d="M536.503 753.471V747.471H548.503V753.471H542.503H536.503ZM542.503 851.51L507.861 791.51H577.144L542.503 851.51ZM542.503 753.471H548.503V797.51H542.503H536.503V753.471H542.503Z" fill="black"/>
</g>
</g>
</svg>
