<svg width="592" height="748" viewBox="0 0 592 748" fill="none" xmlns="http://www.w3.org/2000/svg">
<path d="M394.613 1L355.279 119H197.387L236.721 1H394.613Z" fill="#FDFDFE" stroke="#3D4161" stroke-width="2"/>
<path d="M284.453 63.16C284.453 63.496 284.509 63.7413 284.621 63.896C284.733 64.0507 284.906 64.1653 285.141 64.24L284.812 65.184C284.45 65.136 284.133 65.0213 283.861 64.84C283.589 64.6533 283.391 64.3733 283.269 64C282.965 64.3893 282.586 64.6853 282.133 64.888C281.679 65.0853 281.178 65.184 280.629 65.184C279.786 65.184 279.122 64.9467 278.637 64.472C278.151 63.9973 277.909 63.368 277.909 62.584C277.909 61.7147 278.247 61.048 278.924 60.584C279.602 60.12 280.581 59.888 281.861 59.888H283.101V59.184C283.101 58.576 282.922 58.1467 282.565 57.896C282.213 57.64 281.722 57.512 281.093 57.512C280.815 57.512 280.49 57.5467 280.117 57.616C279.743 57.68 279.338 57.7893 278.901 57.944L278.549 56.928C279.066 56.736 279.551 56.6 280.005 56.52C280.458 56.44 280.89 56.4 281.301 56.4C282.351 56.4 283.138 56.6453 283.661 57.136C284.189 57.6213 284.453 58.2827 284.453 59.12V63.16ZM280.973 64.16C281.389 64.16 281.786 64.056 282.165 63.848C282.543 63.6347 282.855 63.3413 283.101 62.968V60.8H281.885C280.957 60.8 280.301 60.96 279.917 61.28C279.538 61.6 279.349 62.0293 279.349 62.568C279.349 63.0907 279.482 63.488 279.749 63.76C280.021 64.0267 280.429 64.16 280.973 64.16ZM291.206 62.368C291.574 62.368 291.881 62.4933 292.126 62.744C292.377 62.9947 292.502 63.296 292.502 63.648C292.502 63.84 292.478 64.0347 292.43 64.232C292.388 64.4293 292.308 64.6533 292.19 64.904L290.894 67.872H289.678L290.446 64.712C290.286 64.5947 290.158 64.4427 290.062 64.256C289.972 64.064 289.926 63.8613 289.926 63.648C289.926 63.2907 290.049 62.9893 290.294 62.744C290.54 62.4933 290.844 62.368 291.206 62.368ZM308.546 57.672C308.855 57.2667 309.21 56.9547 309.61 56.736C310.015 56.512 310.46 56.4 310.946 56.4C311.698 56.4 312.306 56.5813 312.77 56.944C313.234 57.3067 313.572 57.8187 313.786 58.48C313.999 59.136 314.106 59.904 314.106 60.784C314.106 61.632 313.978 62.3893 313.722 63.056C313.466 63.7173 313.09 64.2373 312.594 64.616C312.103 64.9947 311.495 65.184 310.77 65.184C309.794 65.184 309.028 64.832 308.474 64.128L308.378 65H307.202V53.184L308.546 53.016V57.672ZM310.45 64.096C311.154 64.096 311.695 63.824 312.074 63.28C312.452 62.736 312.642 61.9013 312.642 60.776C312.642 60.04 312.567 59.4293 312.418 58.944C312.268 58.4533 312.044 58.088 311.746 57.848C311.452 57.6027 311.09 57.48 310.658 57.48C310.188 57.48 309.775 57.6213 309.418 57.904C309.066 58.1813 308.775 58.4907 308.546 58.832V63.008C308.764 63.3387 309.039 63.6027 309.37 63.8C309.706 63.9973 310.066 64.096 310.45 64.096Z" fill="#27272A"/>
<path d="M394.056 220L296 278.833L197.943 220L296 161.166L394.056 220Z" fill="#FDFDFE" stroke="#3D4161" stroke-width="2"/>
<path d="M241.281 223.16C241.281 223.496 241.337 223.741 241.449 223.896C241.561 224.051 241.734 224.165 241.969 224.24L241.641 225.184C241.278 225.136 240.961 225.021 240.689 224.84C240.417 224.653 240.219 224.373 240.097 224C239.793 224.389 239.414 224.685 238.961 224.888C238.507 225.085 238.006 225.184 237.457 225.184C236.614 225.184 235.95 224.947 235.465 224.472C234.979 223.997 234.737 223.368 234.737 222.584C234.737 221.715 235.075 221.048 235.753 220.584C236.43 220.12 237.409 219.888 238.689 219.888H239.929V219.184C239.929 218.576 239.75 218.147 239.393 217.896C239.041 217.64 238.55 217.512 237.921 217.512C237.643 217.512 237.318 217.547 236.945 217.616C236.571 217.68 236.166 217.789 235.729 217.944L235.377 216.928C235.894 216.736 236.379 216.6 236.833 216.52C237.286 216.44 237.718 216.4 238.129 216.4C239.179 216.4 239.966 216.645 240.489 217.136C241.017 217.621 241.281 218.283 241.281 219.12V223.16ZM237.801 224.16C238.217 224.16 238.614 224.056 238.993 223.848C239.371 223.635 239.683 223.341 239.929 222.968V220.8H238.713C237.785 220.8 237.129 220.96 236.745 221.28C236.366 221.6 236.177 222.029 236.177 222.568C236.177 223.091 236.31 223.488 236.577 223.76C236.849 224.027 237.257 224.16 237.801 224.16ZM249.668 226.432L248.596 225.896L256.02 213.464L257.06 213.984L249.668 226.432ZM260.74 217.928V219.088H244.916V217.928H260.74ZM260.74 220.96V222.128H244.916V220.96H260.74ZM267.222 213.808C268.411 213.808 269.31 214.299 269.918 215.28C270.526 216.261 270.83 217.664 270.83 219.488C270.83 221.317 270.526 222.725 269.918 223.712C269.31 224.693 268.411 225.184 267.222 225.184C266.038 225.184 265.139 224.693 264.526 223.712C263.918 222.725 263.614 221.317 263.614 219.488C263.614 217.664 263.918 216.261 264.526 215.28C265.139 214.299 266.038 213.808 267.222 213.808ZM267.222 214.888C266.545 214.888 266.011 215.248 265.622 215.968C265.233 216.683 265.038 217.856 265.038 219.488C265.038 220.315 265.081 221.021 265.166 221.608C265.251 222.195 265.382 222.672 265.558 223.04C265.739 223.403 265.966 223.669 266.238 223.84C266.515 224.011 266.843 224.096 267.222 224.096C267.681 224.096 268.073 223.939 268.398 223.624C268.729 223.309 268.979 222.813 269.15 222.136C269.326 221.453 269.414 220.571 269.414 219.488C269.414 218.389 269.337 217.501 269.182 216.824C269.033 216.147 268.795 215.656 268.47 215.352C268.15 215.043 267.734 214.888 267.222 214.888ZM268.846 215.28L269.198 216.456L265.694 223.552L265.198 222.616L268.846 215.28ZM289.249 223.16C289.249 223.496 289.305 223.741 289.417 223.896C289.529 224.051 289.703 224.165 289.937 224.24L289.609 225.184C289.247 225.136 288.929 225.021 288.657 224.84C288.385 224.653 288.188 224.373 288.065 224C287.761 224.389 287.383 224.685 286.929 224.888C286.476 225.085 285.975 225.184 285.425 225.184C284.583 225.184 283.919 224.947 283.433 224.472C282.948 223.997 282.705 223.368 282.705 222.584C282.705 221.715 283.044 221.048 283.721 220.584C284.399 220.12 285.377 219.888 286.657 219.888H287.897V219.184C287.897 218.576 287.719 218.147 287.361 217.896C287.009 217.64 286.519 217.512 285.889 217.512C285.612 217.512 285.287 217.547 284.913 217.616C284.54 217.68 284.135 217.789 283.697 217.944L283.345 216.928C283.863 216.736 284.348 216.6 284.801 216.52C285.255 216.44 285.687 216.4 286.097 216.4C287.148 216.4 287.935 216.645 288.457 217.136C288.985 217.621 289.249 218.283 289.249 219.12V223.16ZM285.769 224.16C286.185 224.16 286.583 224.056 286.961 223.848C287.34 223.635 287.652 223.341 287.897 222.968V220.8H286.681C285.753 220.8 285.097 220.96 284.713 221.28C284.335 221.6 284.145 222.029 284.145 222.568C284.145 223.091 284.279 223.488 284.545 223.76C284.817 224.027 285.225 224.16 285.769 224.16ZM292.811 225V216.576H293.955L294.059 217.744C294.4 217.312 294.827 216.981 295.339 216.752C295.856 216.517 296.358 216.4 296.843 216.4C297.67 216.4 298.27 216.619 298.643 217.056C299.022 217.493 299.211 218.101 299.211 218.88V225H297.867V219.872C297.867 219.296 297.835 218.832 297.771 218.48C297.707 218.123 297.574 217.864 297.371 217.704C297.168 217.539 296.854 217.456 296.427 217.456C296.096 217.456 295.784 217.528 295.491 217.672C295.203 217.816 294.944 217.997 294.715 218.216C294.491 218.429 294.304 218.645 294.155 218.864V225H292.811ZM307.445 213.016L308.789 213.184V225H307.613L307.485 223.888C307.17 224.336 306.808 224.664 306.397 224.872C305.992 225.08 305.557 225.184 305.093 225.184C304.362 225.184 303.76 225 303.285 224.632C302.81 224.264 302.458 223.752 302.229 223.096C302 222.435 301.885 221.669 301.885 220.8C301.885 219.957 302.016 219.205 302.277 218.544C302.538 217.877 302.914 217.355 303.405 216.976C303.901 216.592 304.496 216.4 305.189 216.4C305.674 216.4 306.101 216.485 306.469 216.656C306.837 216.821 307.162 217.067 307.445 217.392V213.016ZM305.541 217.48C304.837 217.48 304.296 217.755 303.917 218.304C303.538 218.853 303.349 219.685 303.349 220.8C303.349 221.525 303.426 222.133 303.581 222.624C303.736 223.115 303.962 223.483 304.261 223.728C304.565 223.973 304.936 224.096 305.373 224.096C305.853 224.096 306.261 223.96 306.597 223.688C306.938 223.416 307.221 223.109 307.445 222.768V218.56C307.216 218.219 306.938 217.955 306.613 217.768C306.288 217.576 305.93 217.48 305.541 217.48ZM322.936 217.672C323.246 217.267 323.6 216.955 324 216.736C324.406 216.512 324.851 216.4 325.336 216.4C326.088 216.4 326.696 216.581 327.16 216.944C327.624 217.307 327.963 217.819 328.176 218.48C328.39 219.136 328.496 219.904 328.496 220.784C328.496 221.632 328.368 222.389 328.112 223.056C327.856 223.717 327.48 224.237 326.984 224.616C326.494 224.995 325.886 225.184 325.16 225.184C324.184 225.184 323.419 224.832 322.864 224.128L322.768 225H321.592V213.184L322.936 213.016V217.672ZM324.84 224.096C325.544 224.096 326.086 223.824 326.464 223.28C326.843 222.736 327.032 221.901 327.032 220.776C327.032 220.04 326.958 219.429 326.808 218.944C326.659 218.453 326.435 218.088 326.136 217.848C325.843 217.603 325.48 217.48 325.048 217.48C324.579 217.48 324.166 217.621 323.808 217.904C323.456 218.181 323.166 218.491 322.936 218.832V223.008C323.155 223.339 323.43 223.603 323.76 223.8C324.096 223.997 324.456 224.096 324.84 224.096ZM336.012 226.432L334.94 225.896L342.364 213.464L343.404 213.984L336.012 226.432ZM347.084 217.928V219.088H331.26V217.928H347.084ZM347.084 220.96V222.128H331.26V220.96H347.084ZM353.566 213.808C354.755 213.808 355.654 214.299 356.262 215.28C356.87 216.261 357.174 217.664 357.174 219.488C357.174 221.317 356.87 222.725 356.262 223.712C355.654 224.693 354.755 225.184 353.566 225.184C352.382 225.184 351.483 224.693 350.87 223.712C350.262 222.725 349.958 221.317 349.958 219.488C349.958 217.664 350.262 216.261 350.87 215.28C351.483 214.299 352.382 213.808 353.566 213.808ZM353.566 214.888C352.888 214.888 352.355 215.248 351.966 215.968C351.576 216.683 351.382 217.856 351.382 219.488C351.382 220.315 351.424 221.021 351.51 221.608C351.595 222.195 351.726 222.672 351.902 223.04C352.083 223.403 352.31 223.669 352.582 223.84C352.859 224.011 353.187 224.096 353.566 224.096C354.024 224.096 354.416 223.939 354.742 223.624C355.072 223.309 355.323 222.813 355.494 222.136C355.67 221.453 355.758 220.571 355.758 219.488C355.758 218.389 355.68 217.501 355.526 216.824C355.376 216.147 355.139 215.656 354.814 215.352C354.494 215.043 354.078 214.888 353.566 214.888ZM355.19 215.28L355.542 216.456L352.038 223.552L351.542 222.616L355.19 215.28Z" fill="#27272A"/>
<path d="M372.613 193.752V198H371.205V193.768L367.485 186.984H369.021L371.941 192.504L374.893 186.984H376.333L372.613 193.752ZM379.367 194.264C379.394 194.915 379.519 195.448 379.743 195.864C379.967 196.275 380.263 196.579 380.631 196.776C380.999 196.968 381.399 197.064 381.831 197.064C382.263 197.064 382.652 197 382.999 196.872C383.351 196.744 383.711 196.555 384.079 196.304L384.711 197.192C384.316 197.501 383.866 197.744 383.359 197.92C382.858 198.096 382.343 198.184 381.815 198.184C380.999 198.184 380.303 198 379.727 197.632C379.151 197.264 378.711 196.752 378.407 196.096C378.108 195.435 377.959 194.669 377.959 193.8C377.959 192.947 378.111 192.189 378.415 191.528C378.719 190.867 379.146 190.347 379.695 189.968C380.244 189.589 380.892 189.4 381.639 189.4C382.348 189.4 382.959 189.568 383.471 189.904C383.983 190.235 384.375 190.709 384.647 191.328C384.924 191.941 385.063 192.675 385.063 193.528C385.063 193.672 385.06 193.808 385.055 193.936C385.05 194.059 385.042 194.168 385.031 194.264H379.367ZM381.655 190.504C381.031 190.504 380.508 190.725 380.087 191.168C379.671 191.611 379.434 192.296 379.375 193.224H383.767C383.751 192.323 383.554 191.645 383.175 191.192C382.796 190.733 382.29 190.504 381.655 190.504ZM390.769 197.072C391.414 197.072 391.924 196.952 392.297 196.712C392.676 196.467 392.865 196.141 392.865 195.736C392.865 195.48 392.817 195.259 392.721 195.072C392.63 194.885 392.441 194.717 392.153 194.568C391.865 194.419 391.422 194.269 390.825 194.12C390.244 193.976 389.737 193.811 389.305 193.624C388.878 193.432 388.545 193.184 388.305 192.88C388.07 192.576 387.953 192.181 387.953 191.696C387.953 191.221 388.086 190.813 388.353 190.472C388.625 190.125 389.001 189.861 389.481 189.68C389.961 189.493 390.518 189.4 391.153 189.4C391.83 189.4 392.42 189.491 392.921 189.672C393.428 189.848 393.857 190.067 394.209 190.328L393.617 191.24C393.297 191.021 392.945 190.843 392.561 190.704C392.177 190.56 391.713 190.488 391.169 190.488C390.508 190.488 390.038 190.592 389.761 190.8C389.484 191.003 389.345 191.267 389.345 191.592C389.345 191.837 389.412 192.043 389.545 192.208C389.684 192.368 389.916 192.515 390.241 192.648C390.566 192.776 391.014 192.917 391.585 193.072C392.134 193.216 392.612 193.389 393.017 193.592C393.428 193.795 393.748 194.061 393.977 194.392C394.206 194.723 394.321 195.149 394.321 195.672C394.321 196.269 394.15 196.755 393.809 197.128C393.468 197.496 393.025 197.765 392.481 197.936C391.942 198.101 391.372 198.184 390.769 198.184C390.006 198.184 389.356 198.075 388.817 197.856C388.284 197.632 387.836 197.363 387.473 197.048L388.241 196.16C388.572 196.432 388.95 196.653 389.377 196.824C389.809 196.989 390.273 197.072 390.769 197.072Z" fill="#27272A"/>
<path d="M202.726 198L198.846 188.312C198.852 188.435 198.862 188.64 198.878 188.928C198.9 189.211 198.921 189.549 198.942 189.944C198.969 190.333 198.99 190.747 199.006 191.184C199.022 191.621 199.03 192.053 199.03 192.48V198H197.742V186.984H199.622L203.566 196.712C203.561 196.557 203.542 196.275 203.51 195.864C203.478 195.448 203.449 194.947 203.422 194.36C203.396 193.773 203.382 193.152 203.382 192.496V186.984H204.67V198H202.726ZM210.816 189.4C211.611 189.4 212.275 189.581 212.808 189.944C213.347 190.301 213.749 190.808 214.016 191.464C214.288 192.12 214.424 192.893 214.424 193.784C214.424 194.643 214.285 195.403 214.008 196.064C213.731 196.725 213.323 197.245 212.784 197.624C212.251 197.997 211.589 198.184 210.8 198.184C210.011 198.184 209.347 198.003 208.808 197.64C208.269 197.277 207.861 196.768 207.584 196.112C207.312 195.451 207.176 194.68 207.176 193.8C207.176 192.931 207.315 192.165 207.592 191.504C207.869 190.843 208.277 190.328 208.816 189.96C209.36 189.587 210.027 189.4 210.816 189.4ZM210.816 190.496C210.091 190.496 209.541 190.765 209.168 191.304C208.8 191.837 208.616 192.669 208.616 193.8C208.616 194.909 208.797 195.733 209.16 196.272C209.528 196.811 210.075 197.08 210.8 197.08C211.525 197.08 212.069 196.811 212.432 196.272C212.8 195.733 212.984 194.904 212.984 193.784C212.984 192.664 212.803 191.837 212.44 191.304C212.077 190.765 211.536 190.496 210.816 190.496Z" fill="#27272A"/>
<path d="M394.056 370L296 428.833L197.943 370L296 311.166L394.056 370Z" fill="#FDFDFE" stroke="#3D4161" stroke-width="2"/>
<path d="M279.656 373.16C279.656 373.496 279.712 373.741 279.824 373.896C279.936 374.051 280.109 374.165 280.344 374.24L280.016 375.184C279.653 375.136 279.336 375.021 279.064 374.84C278.792 374.653 278.594 374.373 278.472 374C278.168 374.389 277.789 374.685 277.336 374.888C276.882 375.085 276.381 375.184 275.832 375.184C274.989 375.184 274.325 374.947 273.84 374.472C273.354 373.997 273.112 373.368 273.112 372.584C273.112 371.715 273.45 371.048 274.128 370.584C274.805 370.12 275.784 369.888 277.064 369.888H278.304V369.184C278.304 368.576 278.125 368.147 277.768 367.896C277.416 367.64 276.925 367.512 276.296 367.512C276.018 367.512 275.693 367.547 275.32 367.616C274.946 367.68 274.541 367.789 274.104 367.944L273.752 366.928C274.269 366.736 274.754 366.6 275.208 366.52C275.661 366.44 276.093 366.4 276.504 366.4C277.554 366.4 278.341 366.645 278.864 367.136C279.392 367.621 279.656 368.283 279.656 369.12V373.16ZM276.176 374.16C276.592 374.16 276.989 374.056 277.368 373.848C277.746 373.635 278.058 373.341 278.304 372.968V370.8H277.088C276.16 370.8 275.504 370.96 275.12 371.28C274.741 371.6 274.552 372.029 274.552 372.568C274.552 373.091 274.685 373.488 274.952 373.76C275.224 374.027 275.632 374.16 276.176 374.16ZM293.259 365.496L299.411 369.296V370.672L293.339 374.472L292.611 373.48L298.259 369.992L292.611 366.512L293.259 365.496ZM313.343 367.672C313.652 367.267 314.007 366.955 314.407 366.736C314.812 366.512 315.257 366.4 315.743 366.4C316.495 366.4 317.103 366.581 317.567 366.944C318.031 367.307 318.369 367.819 318.583 368.48C318.796 369.136 318.903 369.904 318.903 370.784C318.903 371.632 318.775 372.389 318.519 373.056C318.263 373.717 317.887 374.237 317.391 374.616C316.9 374.995 316.292 375.184 315.567 375.184C314.591 375.184 313.825 374.832 313.271 374.128L313.175 375H311.999V363.184L313.343 363.016V367.672ZM315.247 374.096C315.951 374.096 316.492 373.824 316.871 373.28C317.249 372.736 317.439 371.901 317.439 370.776C317.439 370.04 317.364 369.429 317.215 368.944C317.065 368.453 316.841 368.088 316.543 367.848C316.249 367.603 315.887 367.48 315.455 367.48C314.985 367.48 314.572 367.621 314.215 367.904C313.863 368.181 313.572 368.491 313.343 368.832V373.008C313.561 373.339 313.836 373.603 314.167 373.8C314.503 373.997 314.863 374.096 315.247 374.096Z" fill="#27272A"/>
<path d="M372.613 343.752V348H371.205V343.768L367.485 336.984H369.021L371.941 342.504L374.893 336.984H376.333L372.613 343.752ZM379.367 344.264C379.394 344.915 379.519 345.448 379.743 345.864C379.967 346.275 380.263 346.579 380.631 346.776C380.999 346.968 381.399 347.064 381.831 347.064C382.263 347.064 382.652 347 382.999 346.872C383.351 346.744 383.711 346.555 384.079 346.304L384.711 347.192C384.316 347.501 383.866 347.744 383.359 347.92C382.858 348.096 382.343 348.184 381.815 348.184C380.999 348.184 380.303 348 379.727 347.632C379.151 347.264 378.711 346.752 378.407 346.096C378.108 345.435 377.959 344.669 377.959 343.8C377.959 342.947 378.111 342.189 378.415 341.528C378.719 340.867 379.146 340.347 379.695 339.968C380.244 339.589 380.892 339.4 381.639 339.4C382.348 339.4 382.959 339.568 383.471 339.904C383.983 340.235 384.375 340.709 384.647 341.328C384.924 341.941 385.063 342.675 385.063 343.528C385.063 343.672 385.06 343.808 385.055 343.936C385.05 344.059 385.042 344.168 385.031 344.264H379.367ZM381.655 340.504C381.031 340.504 380.508 340.725 380.087 341.168C379.671 341.611 379.434 342.296 379.375 343.224H383.767C383.751 342.323 383.554 341.645 383.175 341.192C382.796 340.733 382.29 340.504 381.655 340.504ZM390.769 347.072C391.414 347.072 391.924 346.952 392.297 346.712C392.676 346.467 392.865 346.141 392.865 345.736C392.865 345.48 392.817 345.259 392.721 345.072C392.63 344.885 392.441 344.717 392.153 344.568C391.865 344.419 391.422 344.269 390.825 344.12C390.244 343.976 389.737 343.811 389.305 343.624C388.878 343.432 388.545 343.184 388.305 342.88C388.07 342.576 387.953 342.181 387.953 341.696C387.953 341.221 388.086 340.813 388.353 340.472C388.625 340.125 389.001 339.861 389.481 339.68C389.961 339.493 390.518 339.4 391.153 339.4C391.83 339.4 392.42 339.491 392.921 339.672C393.428 339.848 393.857 340.067 394.209 340.328L393.617 341.24C393.297 341.021 392.945 340.843 392.561 340.704C392.177 340.56 391.713 340.488 391.169 340.488C390.508 340.488 390.038 340.592 389.761 340.8C389.484 341.003 389.345 341.267 389.345 341.592C389.345 341.837 389.412 342.043 389.545 342.208C389.684 342.368 389.916 342.515 390.241 342.648C390.566 342.776 391.014 342.917 391.585 343.072C392.134 343.216 392.612 343.389 393.017 343.592C393.428 343.795 393.748 344.061 393.977 344.392C394.206 344.723 394.321 345.149 394.321 345.672C394.321 346.269 394.15 346.755 393.809 347.128C393.468 347.496 393.025 347.765 392.481 347.936C391.942 348.101 391.372 348.184 390.769 348.184C390.006 348.184 389.356 348.075 388.817 347.856C388.284 347.632 387.836 347.363 387.473 347.048L388.241 346.16C388.572 346.432 388.95 346.653 389.377 346.824C389.809 346.989 390.273 347.072 390.769 347.072Z" fill="#27272A"/>
<path d="M202.726 348L198.846 338.312C198.852 338.435 198.862 338.64 198.878 338.928C198.9 339.211 198.921 339.549 198.942 339.944C198.969 340.333 198.99 340.747 199.006 341.184C199.022 341.621 199.03 342.053 199.03 342.48V348H197.742V336.984H199.622L203.566 346.712C203.561 346.557 203.542 346.275 203.51 345.864C203.478 345.448 203.449 344.947 203.422 344.36C203.396 343.773 203.382 343.152 203.382 342.496V336.984H204.67V348H202.726ZM210.816 339.4C211.611 339.4 212.275 339.581 212.808 339.944C213.347 340.301 213.749 340.808 214.016 341.464C214.288 342.12 214.424 342.893 214.424 343.784C214.424 344.643 214.285 345.403 214.008 346.064C213.731 346.725 213.323 347.245 212.784 347.624C212.251 347.997 211.589 348.184 210.8 348.184C210.011 348.184 209.347 348.003 208.808 347.64C208.269 347.277 207.861 346.768 207.584 346.112C207.312 345.451 207.176 344.68 207.176 343.8C207.176 342.931 207.315 342.165 207.592 341.504C207.869 340.843 208.277 340.328 208.816 339.96C209.36 339.587 210.027 339.4 210.816 339.4ZM210.816 340.496C210.091 340.496 209.541 340.765 209.168 341.304C208.8 341.837 208.616 342.669 208.616 343.8C208.616 344.909 208.797 345.733 209.16 346.272C209.528 346.811 210.075 347.08 210.8 347.08C211.525 347.08 212.069 346.811 212.432 346.272C212.8 345.733 212.984 344.904 212.984 343.784C212.984 342.664 212.803 341.837 212.44 341.304C212.077 340.765 211.536 340.496 210.816 340.496Z" fill="#27272A"/>
<rect x="197" y="629" width="198" height="118" fill="#FDFDFE" stroke="#3D4161" stroke-width="2"/>
<path d="M243.814 684.4C244.56 684.4 245.155 684.581 245.598 684.944C246.046 685.307 246.368 685.819 246.566 686.48C246.763 687.136 246.862 687.904 246.862 688.784C246.862 689.632 246.742 690.389 246.502 691.056C246.267 691.717 245.91 692.237 245.43 692.616C244.95 692.995 244.344 693.184 243.614 693.184C242.691 693.184 241.95 692.859 241.39 692.208V696.224L240.046 696.392V684.576H241.19L241.302 685.752C241.611 685.32 241.979 684.987 242.406 684.752C242.838 684.517 243.307 684.4 243.814 684.4ZM243.494 685.48C243.03 685.48 242.619 685.621 242.262 685.904C241.91 686.181 241.619 686.491 241.39 686.832V691.008C241.608 691.333 241.883 691.592 242.214 691.784C242.55 691.971 242.918 692.064 243.318 692.064C244.016 692.064 244.542 691.797 244.894 691.264C245.246 690.731 245.422 689.901 245.422 688.776C245.422 688.04 245.352 687.429 245.214 686.944C245.075 686.453 244.864 686.088 244.582 685.848C244.299 685.603 243.936 685.48 243.494 685.48ZM249.719 693V691.968H251.031V685.608H249.719V684.576H252.055L252.303 686.568C252.629 685.875 253.023 685.339 253.487 684.96C253.951 684.581 254.565 684.392 255.327 684.392C255.562 684.392 255.77 684.411 255.951 684.448C256.138 684.48 256.327 684.523 256.519 684.576L256.127 685.776C255.951 685.728 255.791 685.693 255.647 685.672C255.503 685.645 255.338 685.632 255.151 685.632C254.506 685.632 253.951 685.861 253.487 686.32C253.023 686.779 252.653 687.472 252.375 688.4V691.968H254.087V693H249.719ZM255.223 687.424V685.592L255.359 684.576H256.519L256.327 687.424H255.223ZM263.497 684.576V691.936H265.873V693H259.553V691.936H262.153V685.64H259.633V684.576H263.497ZM262.425 680.632C262.724 680.632 262.961 680.723 263.137 680.904C263.318 681.085 263.409 681.307 263.409 681.568C263.409 681.84 263.318 682.069 263.137 682.256C262.961 682.437 262.724 682.528 262.425 682.528C262.142 682.528 261.91 682.437 261.729 682.256C261.548 682.069 261.457 681.84 261.457 681.568C261.457 681.307 261.548 681.085 261.729 680.904C261.91 680.723 262.142 680.632 262.425 680.632ZM268.827 693V684.576H269.971L270.075 685.744C270.416 685.312 270.843 684.981 271.355 684.752C271.872 684.517 272.373 684.4 272.859 684.4C273.685 684.4 274.285 684.619 274.659 685.056C275.037 685.493 275.227 686.101 275.227 686.88V693H273.883V687.872C273.883 687.296 273.851 686.832 273.787 686.48C273.723 686.123 273.589 685.864 273.387 685.704C273.184 685.539 272.869 685.456 272.443 685.456C272.112 685.456 271.8 685.528 271.507 685.672C271.219 685.816 270.96 685.997 270.731 686.216C270.507 686.429 270.32 686.645 270.171 686.864V693H268.827ZM285.109 692.576C284.821 692.768 284.471 692.917 284.061 693.024C283.65 693.131 283.247 693.184 282.853 693.184C281.946 693.184 281.247 692.947 280.757 692.472C280.266 691.997 280.021 691.387 280.021 690.64V685.616H278.085V684.576H280.021V682.664L281.365 682.504V684.576H284.277L284.117 685.616H281.365V690.624C281.365 691.093 281.487 691.451 281.733 691.696C281.983 691.941 282.397 692.064 282.973 692.064C283.287 692.064 283.578 692.027 283.845 691.952C284.111 691.877 284.359 691.781 284.589 691.664L285.109 692.576ZM289.806 687.4C289.806 688.232 289.878 688.979 290.022 689.64C290.166 690.296 290.38 690.899 290.662 691.448C290.945 691.992 291.3 692.509 291.726 693C292.158 693.496 292.66 693.997 293.23 694.504L292.526 695.24C291.662 694.531 290.921 693.805 290.302 693.064C289.689 692.323 289.217 691.496 288.886 690.584C288.561 689.672 288.398 688.611 288.398 687.4C288.398 686.184 288.561 685.12 288.886 684.208C289.217 683.296 289.689 682.469 290.302 681.728C290.921 680.987 291.662 680.264 292.526 679.56L293.23 680.296C292.654 680.808 292.15 681.312 291.718 681.808C291.292 682.299 290.937 682.816 290.654 683.36C290.372 683.899 290.158 684.499 290.014 685.16C289.876 685.816 289.806 686.563 289.806 687.4ZM303.64 691.16C303.64 691.496 303.696 691.741 303.808 691.896C303.92 692.051 304.093 692.165 304.328 692.24L304 693.184C303.637 693.136 303.32 693.021 303.048 692.84C302.776 692.653 302.579 692.373 302.456 692C302.152 692.389 301.773 692.685 301.32 692.888C300.867 693.085 300.365 693.184 299.816 693.184C298.973 693.184 298.309 692.947 297.824 692.472C297.339 691.997 297.096 691.368 297.096 690.584C297.096 689.715 297.435 689.048 298.112 688.584C298.789 688.12 299.768 687.888 301.048 687.888H302.288V687.184C302.288 686.576 302.109 686.147 301.752 685.896C301.4 685.64 300.909 685.512 300.28 685.512C300.003 685.512 299.677 685.547 299.304 685.616C298.931 685.68 298.525 685.789 298.088 685.944L297.736 684.928C298.253 684.736 298.739 684.6 299.192 684.52C299.645 684.44 300.077 684.4 300.488 684.4C301.539 684.4 302.325 684.645 302.848 685.136C303.376 685.621 303.64 686.283 303.64 687.12V691.16ZM300.16 692.16C300.576 692.16 300.973 692.056 301.352 691.848C301.731 691.635 302.043 691.341 302.288 690.968V688.8H301.072C300.144 688.8 299.488 688.96 299.104 689.28C298.725 689.6 298.536 690.029 298.536 690.568C298.536 691.091 298.669 691.488 298.936 691.76C299.208 692.027 299.616 692.16 300.16 692.16ZM320.596 684.272V687.464H323.74V688.592H320.596V691.76H319.34V688.592H316.236V687.464H319.34V684.272H320.596ZM337.327 685.672C337.636 685.267 337.991 684.955 338.391 684.736C338.796 684.512 339.242 684.4 339.727 684.4C340.479 684.4 341.087 684.581 341.551 684.944C342.015 685.307 342.354 685.819 342.567 686.48C342.78 687.136 342.887 687.904 342.887 688.784C342.887 689.632 342.759 690.389 342.503 691.056C342.247 691.717 341.871 692.237 341.375 692.616C340.884 692.995 340.276 693.184 339.551 693.184C338.575 693.184 337.81 692.832 337.255 692.128L337.159 693H335.983V681.184L337.327 681.016V685.672ZM339.231 692.096C339.935 692.096 340.476 691.824 340.855 691.28C341.234 690.736 341.423 689.901 341.423 688.776C341.423 688.04 341.348 687.429 341.199 686.944C341.05 686.453 340.826 686.088 340.527 685.848C340.234 685.603 339.871 685.48 339.439 685.48C338.97 685.48 338.556 685.621 338.199 685.904C337.847 686.181 337.556 686.491 337.327 686.832V691.008C337.546 691.339 337.82 691.603 338.151 691.8C338.487 691.997 338.847 692.096 339.231 692.096ZM350.169 687.4C350.169 686.563 350.097 685.816 349.953 685.16C349.814 684.499 349.603 683.899 349.321 683.36C349.038 682.816 348.681 682.299 348.249 681.808C347.822 681.312 347.321 680.808 346.745 680.296L347.449 679.56C348.318 680.264 349.059 680.987 349.673 681.728C350.286 682.469 350.755 683.296 351.081 684.208C351.411 685.12 351.577 686.184 351.577 687.4C351.577 688.611 351.411 689.672 351.081 690.584C350.755 691.496 350.286 692.323 349.673 693.064C349.059 693.805 348.318 694.531 347.449 695.24L346.745 694.504C347.315 693.997 347.814 693.496 348.241 693C348.673 692.509 349.03 691.992 349.313 691.448C349.595 690.899 349.809 690.296 349.953 689.64C350.097 688.979 350.169 688.232 350.169 687.4Z" fill="#27272A"/>
<rect x="357" y="431" width="198" height="118" fill="#FDFDFE" stroke="#3D4161" stroke-width="2"/>
<path d="M420.468 493.16C420.468 493.496 420.524 493.741 420.636 493.896C420.748 494.051 420.921 494.165 421.156 494.24L420.828 495.184C420.465 495.136 420.148 495.021 419.876 494.84C419.604 494.653 419.407 494.373 419.284 494C418.98 494.389 418.601 494.685 418.148 494.888C417.695 495.085 417.193 495.184 416.644 495.184C415.801 495.184 415.137 494.947 414.652 494.472C414.167 493.997 413.924 493.368 413.924 492.584C413.924 491.715 414.263 491.048 414.94 490.584C415.617 490.12 416.596 489.888 417.876 489.888H419.116V489.184C419.116 488.576 418.937 488.147 418.58 487.896C418.228 487.64 417.737 487.512 417.108 487.512C416.831 487.512 416.505 487.547 416.132 487.616C415.759 487.68 415.353 487.789 414.916 487.944L414.564 486.928C415.081 486.736 415.567 486.6 416.02 486.52C416.473 486.44 416.905 486.4 417.316 486.4C418.367 486.4 419.153 486.645 419.676 487.136C420.204 487.621 420.468 488.283 420.468 489.12V493.16ZM416.988 494.16C417.404 494.16 417.801 494.056 418.18 493.848C418.559 493.635 418.871 493.341 419.116 492.968V490.8H417.9C416.972 490.8 416.316 490.96 415.932 491.28C415.553 491.6 415.364 492.029 415.364 492.568C415.364 493.091 415.497 493.488 415.764 493.76C416.036 494.027 416.444 494.16 416.988 494.16ZM439.928 487.928V489.088H433.704V487.928H439.928ZM439.928 490.96V492.128H433.704V490.96H439.928ZM458.843 493.16C458.843 493.496 458.899 493.741 459.011 493.896C459.123 494.051 459.296 494.165 459.531 494.24L459.203 495.184C458.84 495.136 458.523 495.021 458.251 494.84C457.979 494.653 457.782 494.373 457.659 494C457.355 494.389 456.976 494.685 456.523 494.888C456.07 495.085 455.568 495.184 455.019 495.184C454.176 495.184 453.512 494.947 453.027 494.472C452.542 493.997 452.299 493.368 452.299 492.584C452.299 491.715 452.638 491.048 453.315 490.584C453.992 490.12 454.971 489.888 456.251 489.888H457.491V489.184C457.491 488.576 457.312 488.147 456.955 487.896C456.603 487.64 456.112 487.512 455.483 487.512C455.206 487.512 454.88 487.547 454.507 487.616C454.134 487.68 453.728 487.789 453.291 487.944L452.939 486.928C453.456 486.736 453.942 486.6 454.395 486.52C454.848 486.44 455.28 486.4 455.691 486.4C456.742 486.4 457.528 486.645 458.051 487.136C458.579 487.621 458.843 488.283 458.843 489.12V493.16ZM455.363 494.16C455.779 494.16 456.176 494.056 456.555 493.848C456.934 493.635 457.246 493.341 457.491 492.968V490.8H456.275C455.347 490.8 454.691 490.96 454.307 491.28C453.928 491.6 453.739 492.029 453.739 492.568C453.739 493.091 453.872 493.488 454.139 493.76C454.411 494.027 454.819 494.16 455.363 494.16ZM478.463 483.688L479.327 484.248L471.751 495.32L470.911 494.76L478.463 483.688ZM477.367 490.912C477.052 490.912 476.785 491.04 476.567 491.296C476.348 491.547 476.239 491.952 476.239 492.512C476.239 493.029 476.345 493.432 476.559 493.72C476.772 494.008 477.041 494.152 477.367 494.152C477.687 494.152 477.951 494.021 478.159 493.76C478.372 493.499 478.479 493.083 478.479 492.512C478.479 491.936 478.372 491.525 478.159 491.28C477.951 491.035 477.687 490.912 477.367 490.912ZM473.047 484.768C472.732 484.768 472.465 484.899 472.247 485.16C472.028 485.421 471.919 485.824 471.919 486.368C471.919 486.891 472.025 487.296 472.239 487.584C472.452 487.867 472.721 488.008 473.047 488.008C473.367 488.008 473.631 487.877 473.839 487.616C474.052 487.355 474.159 486.939 474.159 486.368C474.159 485.792 474.052 485.381 473.839 485.136C473.631 484.891 473.367 484.768 473.047 484.768ZM473.047 483.808C473.548 483.808 473.972 483.925 474.319 484.16C474.665 484.395 474.929 484.707 475.111 485.096C475.297 485.485 475.391 485.909 475.391 486.368C475.391 486.816 475.297 487.237 475.111 487.632C474.929 488.027 474.665 488.347 474.319 488.592C473.972 488.832 473.548 488.952 473.047 488.952C472.551 488.952 472.127 488.832 471.775 488.592C471.423 488.347 471.153 488.027 470.967 487.632C470.78 487.237 470.687 486.816 470.687 486.368C470.687 485.904 470.78 485.48 470.967 485.096C471.153 484.707 471.423 484.395 471.775 484.16C472.127 483.925 472.551 483.808 473.047 483.808ZM477.367 489.944C477.868 489.944 478.292 490.064 478.639 490.304C478.985 490.539 479.249 490.851 479.431 491.24C479.617 491.629 479.711 492.053 479.711 492.512C479.711 492.965 479.617 493.389 479.431 493.784C479.249 494.173 478.985 494.491 478.639 494.736C478.292 494.976 477.868 495.096 477.367 495.096C476.871 495.096 476.447 494.976 476.095 494.736C475.743 494.491 475.473 494.173 475.287 493.784C475.1 493.389 475.007 492.965 475.007 492.512C475.007 492.048 475.1 491.621 475.287 491.232C475.473 490.843 475.743 490.531 476.095 490.296C476.447 490.061 476.871 489.944 477.367 489.944ZM492.53 487.672C492.839 487.267 493.194 486.955 493.594 486.736C493.999 486.512 494.445 486.4 494.93 486.4C495.682 486.4 496.29 486.581 496.754 486.944C497.218 487.307 497.557 487.819 497.77 488.48C497.983 489.136 498.09 489.904 498.09 490.784C498.09 491.632 497.962 492.389 497.706 493.056C497.45 493.717 497.074 494.237 496.578 494.616C496.087 494.995 495.479 495.184 494.754 495.184C493.778 495.184 493.013 494.832 492.458 494.128L492.362 495H491.186V483.184L492.53 483.016V487.672ZM494.434 494.096C495.138 494.096 495.679 493.824 496.058 493.28C496.437 492.736 496.626 491.901 496.626 490.776C496.626 490.04 496.551 489.429 496.402 488.944C496.253 488.453 496.029 488.088 495.73 487.848C495.437 487.603 495.074 487.48 494.642 487.48C494.173 487.48 493.759 487.621 493.402 487.904C493.05 488.181 492.759 488.491 492.53 488.832V493.008C492.749 493.339 493.023 493.603 493.354 493.8C493.69 493.997 494.05 494.096 494.434 494.096Z" fill="#27272A"/>
<rect x="37" y="431" width="198" height="118" fill="#FDFDFE" stroke="#3D4161" stroke-width="2"/>
<path d="M95.7801 487.672C96.0895 487.267 96.4441 486.955 96.8441 486.736C97.2495 486.512 97.6948 486.4 98.1801 486.4C98.9321 486.4 99.5401 486.581 100.004 486.944C100.468 487.307 100.807 487.819 101.02 488.48C101.233 489.136 101.34 489.904 101.34 490.784C101.34 491.632 101.212 492.389 100.956 493.056C100.7 493.717 100.324 494.237 99.8281 494.616C99.3375 494.995 98.7295 495.184 98.0041 495.184C97.0281 495.184 96.2628 494.832 95.7081 494.128L95.6121 495H94.4361V483.184L95.7801 483.016V487.672ZM97.6841 494.096C98.3881 494.096 98.9295 493.824 99.3081 493.28C99.6868 492.736 99.8761 491.901 99.8761 490.776C99.8761 490.04 99.8015 489.429 99.6521 488.944C99.5028 488.453 99.2788 488.088 98.9801 487.848C98.6868 487.603 98.3241 487.48 97.8921 487.48C97.4228 487.48 97.0095 487.621 96.6521 487.904C96.3001 488.181 96.0095 488.491 95.7801 488.832V493.008C95.9988 493.339 96.2735 493.603 96.6041 493.8C96.9401 493.997 97.3001 494.096 97.6841 494.096ZM119.928 487.928V489.088H113.704V487.928H119.928ZM119.928 490.96V492.128H113.704V490.96H119.928ZM134.155 487.672C134.464 487.267 134.819 486.955 135.219 486.736C135.624 486.512 136.07 486.4 136.555 486.4C137.307 486.4 137.915 486.581 138.379 486.944C138.843 487.307 139.182 487.819 139.395 488.48C139.608 489.136 139.715 489.904 139.715 490.784C139.715 491.632 139.587 492.389 139.331 493.056C139.075 493.717 138.699 494.237 138.203 494.616C137.712 494.995 137.104 495.184 136.379 495.184C135.403 495.184 134.638 494.832 134.083 494.128L133.987 495H132.811V483.184L134.155 483.016V487.672ZM136.059 494.096C136.763 494.096 137.304 493.824 137.683 493.28C138.062 492.736 138.251 491.901 138.251 490.776C138.251 490.04 138.176 489.429 138.027 488.944C137.878 488.453 137.654 488.088 137.355 487.848C137.062 487.603 136.699 487.48 136.267 487.48C135.798 487.48 135.384 487.621 135.027 487.904C134.675 488.181 134.384 488.491 134.155 488.832V493.008C134.374 493.339 134.648 493.603 134.979 493.8C135.315 493.997 135.675 494.096 136.059 494.096ZM158.463 483.688L159.327 484.248L151.751 495.32L150.911 494.76L158.463 483.688ZM157.367 490.912C157.052 490.912 156.785 491.04 156.567 491.296C156.348 491.547 156.239 491.952 156.239 492.512C156.239 493.029 156.345 493.432 156.559 493.72C156.772 494.008 157.041 494.152 157.367 494.152C157.687 494.152 157.951 494.021 158.159 493.76C158.372 493.499 158.479 493.083 158.479 492.512C158.479 491.936 158.372 491.525 158.159 491.28C157.951 491.035 157.687 490.912 157.367 490.912ZM153.047 484.768C152.732 484.768 152.465 484.899 152.247 485.16C152.028 485.421 151.919 485.824 151.919 486.368C151.919 486.891 152.025 487.296 152.239 487.584C152.452 487.867 152.721 488.008 153.047 488.008C153.367 488.008 153.631 487.877 153.839 487.616C154.052 487.355 154.159 486.939 154.159 486.368C154.159 485.792 154.052 485.381 153.839 485.136C153.631 484.891 153.367 484.768 153.047 484.768ZM153.047 483.808C153.548 483.808 153.972 483.925 154.319 484.16C154.665 484.395 154.929 484.707 155.111 485.096C155.297 485.485 155.391 485.909 155.391 486.368C155.391 486.816 155.297 487.237 155.111 487.632C154.929 488.027 154.665 488.347 154.319 488.592C153.972 488.832 153.548 488.952 153.047 488.952C152.551 488.952 152.127 488.832 151.775 488.592C151.423 488.347 151.153 488.027 150.967 487.632C150.78 487.237 150.687 486.816 150.687 486.368C150.687 485.904 150.78 485.48 150.967 485.096C151.153 484.707 151.423 484.395 151.775 484.16C152.127 483.925 152.551 483.808 153.047 483.808ZM157.367 489.944C157.868 489.944 158.292 490.064 158.639 490.304C158.985 490.539 159.249 490.851 159.431 491.24C159.617 491.629 159.711 492.053 159.711 492.512C159.711 492.965 159.617 493.389 159.431 493.784C159.249 494.173 158.985 494.491 158.639 494.736C158.292 494.976 157.868 495.096 157.367 495.096C156.871 495.096 156.447 494.976 156.095 494.736C155.743 494.491 155.473 494.173 155.287 493.784C155.1 493.389 155.007 492.965 155.007 492.512C155.007 492.048 155.1 491.621 155.287 491.232C155.473 490.843 155.743 490.531 156.095 490.296C156.447 490.061 156.871 489.944 157.367 489.944ZM177.218 493.16C177.218 493.496 177.274 493.741 177.386 493.896C177.498 494.051 177.671 494.165 177.906 494.24L177.578 495.184C177.215 495.136 176.898 495.021 176.626 494.84C176.354 494.653 176.157 494.373 176.034 494C175.73 494.389 175.351 494.685 174.898 494.888C174.445 495.085 173.943 495.184 173.394 495.184C172.551 495.184 171.887 494.947 171.402 494.472C170.917 493.997 170.674 493.368 170.674 492.584C170.674 491.715 171.013 491.048 171.69 490.584C172.367 490.12 173.346 489.888 174.626 489.888H175.866V489.184C175.866 488.576 175.687 488.147 175.33 487.896C174.978 487.64 174.487 487.512 173.858 487.512C173.581 487.512 173.255 487.547 172.882 487.616C172.509 487.68 172.103 487.789 171.666 487.944L171.314 486.928C171.831 486.736 172.317 486.6 172.77 486.52C173.223 486.44 173.655 486.4 174.066 486.4C175.117 486.4 175.903 486.645 176.426 487.136C176.954 487.621 177.218 488.283 177.218 489.12V493.16ZM173.738 494.16C174.154 494.16 174.551 494.056 174.93 493.848C175.309 493.635 175.621 493.341 175.866 492.968V490.8H174.65C173.722 490.8 173.066 490.96 172.682 491.28C172.303 491.6 172.114 492.029 172.114 492.568C172.114 493.091 172.247 493.488 172.514 493.76C172.786 494.027 173.194 494.16 173.738 494.16Z" fill="#27272A"/>
<path d="M296 160L301.774 150H290.226L296 160ZM296 120H295V151H296H297V120H296Z" fill="#3D4161"/>
<path d="M296 310L301.774 300L290.226 300L296 310ZM296 289L295 289L295 301L296 301L297 301L297 289L296 289Z" fill="#3D4161"/>
<path d="M296 628L301.774 618L290.226 618L296 628ZM296 607L295 607L295 619L296 619L297 619L297 607L296 607Z" fill="#3D4161"/>
<path d="M136 430L141.774 420L130.226 420L136 430ZM136 369L135 369L135 421L136 421L137 421L137 369L136 369Z" fill="#3D4161"/>
<path d="M456 430L461.774 420L450.226 420L456 430ZM456 369L455 369L455 421L456 421L457 421L457 369L456 369Z" fill="#3D4161"/>
<path d="M0 220H200" stroke="#3D4161" stroke-width="2"/>
<path d="M296 135H592" stroke="#3D4161" stroke-width="2"/>
<path d="M295 289L457 289" stroke="#3D4161" stroke-width="2"/>
<path d="M392 220H457" stroke="#3D4161" stroke-width="2"/>
<path d="M392 370H457" stroke="#3D4161" stroke-width="2"/>
<path d="M135 370H200" stroke="#3D4161" stroke-width="2"/>
<path d="M1 219L1 609" stroke="#3D4161" stroke-width="2"/>
<path d="M591 135L591 579" stroke="#3D4161" stroke-width="2"/>
<path d="M456 219V289" stroke="#3D4161" stroke-width="2"/>
<path d="M136 550L136 579" stroke="#3D4161" stroke-width="2"/>
<path d="M456 550L456 579" stroke="#3D4161" stroke-width="2"/>
<path d="M0 608L297 608" stroke="#3D4161" stroke-width="2"/>
<path d="M135 578L592 578" stroke="#3D4161" stroke-width="2"/>
<circle cx="296" cy="135" r="5" fill="#3D4161"/>
<circle cx="456" cy="578" r="5" fill="#3D4161"/>
</svg>
